{"glyphs":{"0":{"ha":600,"x_min":28,"x_max":581,"o":"m 29 546 q 51 697 28 619 q 122 830 75 774 q 235 912 168 886 q 390 910 303 938 q 491 849 451 890 q 551 754 531 808 q 576 638 572 700 q 571 517 581 576 q 541 405 561 457 q 493 317 521 353 q 415 247 458 272 q 328 214 372 221 q 222 222 274 206 q 127 281 169 239 q 58 389 85 322 q 29 546 31 456 m 335 454 q 376 494 363 463 q 390 563 389 525 q 383 640 392 601 q 360 702 375 679 q 325 726 346 725 q 281 689 304 726 q 265 652 272 676 q 255 599 258 628 q 252 541 251 571 q 262 489 253 511 q 288 456 271 467 q 335 454 306 446 z "},"1":{"ha":367,"x_min":15,"x_max":338,"o":"m 113 721 q 48 744 71 726 q 20 784 25 761 q 29 834 15 807 q 75 885 43 861 q 115 915 94 900 q 158 943 136 931 q 212 960 185 958 q 263 953 239 963 q 304 923 286 943 q 331 874 322 903 q 337 811 336 856 q 335 709 338 767 q 327 587 332 651 q 316 463 322 522 q 303 357 310 404 q 292 289 297 310 q 263 235 285 257 q 207 214 242 214 q 150 235 174 214 q 118 288 126 256 q 108 374 110 315 q 106 498 106 432 q 109 626 107 564 q 113 721 111 688 z "},"2":{"ha":469,"x_min":15,"x_max":439,"o":"m 283 415 q 338 399 310 411 q 388 367 365 386 q 425 324 411 349 q 436 268 439 299 q 407 206 433 228 q 345 177 381 185 q 272 174 310 169 q 206 189 233 178 q 139 215 174 203 q 75 249 104 228 q 24 319 32 279 q 27 405 15 360 q 65 498 39 450 q 119 592 92 546 q 167 681 146 638 q 190 758 188 724 q 147 746 169 754 q 106 734 125 738 q 69 738 86 731 q 42 772 53 744 q 38 847 28 806 q 85 910 49 889 q 185 939 132 936 q 285 924 238 942 q 365 869 332 907 q 407 775 399 831 q 404 678 414 725 q 375 586 394 631 q 331 499 356 542 q 283 415 306 457 z "},"3":{"ha":608,"x_min":21,"x_max":571,"o":"m 446 626 q 511 573 485 604 q 552 506 538 542 q 569 431 567 469 q 561 353 571 392 q 500 235 540 274 q 406 184 460 197 q 290 174 353 171 q 158 183 226 178 q 113 193 135 185 q 67 224 83 203 q 46 274 50 244 q 50 320 42 299 q 74 358 58 342 q 110 383 89 374 q 154 392 132 392 q 217 389 186 392 q 274 386 249 386 q 320 399 306 386 q 336 428 335 411 q 326 459 338 444 q 293 478 314 474 q 256 482 281 481 q 221 486 231 483 q 174 514 192 493 q 149 559 156 535 q 151 607 143 583 q 181 643 158 631 q 276 711 240 678 q 307 753 299 732 q 309 791 315 775 q 283 815 303 807 q 233 818 264 822 q 183 802 207 814 q 138 780 160 790 q 97 767 117 769 q 56 781 76 765 q 23 834 25 804 q 40 894 21 864 q 97 950 60 924 q 179 992 133 976 q 277 1011 225 1008 q 379 997 329 1014 q 482 930 446 975 q 526 832 518 885 q 513 724 533 779 q 446 626 493 669 z "},"4":{"ha":643,"x_min":14,"x_max":629,"o":"m 347 578 q 374 637 363 607 q 399 696 386 667 q 426 755 411 725 q 461 814 440 785 q 504 853 478 839 q 556 869 531 868 q 600 853 581 869 q 625 800 619 838 q 619 719 629 769 q 591 608 610 669 q 548 481 572 547 q 500 351 524 414 q 456 235 476 289 q 422 146 435 181 q 385 95 410 110 q 333 83 360 81 q 285 106 307 86 q 256 161 263 126 q 253 204 251 181 q 260 253 256 228 q 270 301 264 278 q 282 344 276 325 q 217 367 250 360 q 150 386 183 375 q 56 446 86 407 q 19 532 25 485 q 28 633 14 579 q 66 740 42 688 q 119 840 90 793 q 172 924 147 888 q 206 955 186 943 q 249 967 225 967 q 294 954 278 967 q 319 923 311 942 q 326 881 326 904 q 319 835 325 857 q 278 709 303 771 q 236 582 253 647 l 347 578 z "},"5":{"ha":590,"x_min":13,"x_max":574,"o":"m 299 511 q 226 513 261 518 q 154 504 192 507 q 85 522 111 501 q 49 577 60 543 q 38 653 38 611 q 47 738 38 696 q 70 815 56 779 q 101 871 85 851 q 174 922 126 900 q 274 961 221 944 q 380 988 326 978 q 471 1004 433 999 q 528 996 504 1008 q 563 962 553 983 q 567 915 574 940 q 535 871 561 890 q 478 842 519 860 q 389 805 436 824 q 298 771 342 786 q 233 751 254 756 l 233 722 q 281 724 257 722 q 329 722 306 725 q 467 675 415 717 q 539 573 519 633 q 545 443 558 513 q 488 312 532 374 q 369 205 444 250 q 189 149 293 160 q 95 166 136 143 q 33 225 54 189 q 19 303 13 261 q 68 381 25 346 q 127 410 90 399 q 201 433 164 421 q 266 464 238 446 q 299 511 294 482 z "},"6":{"ha":568,"x_min":21,"x_max":543,"o":"m 321 719 q 438 676 390 710 q 511 597 486 643 q 540 496 536 550 q 525 390 543 442 q 467 293 507 338 q 368 222 428 249 q 282 201 325 203 q 199 211 239 199 q 126 251 160 224 q 68 318 92 278 q 26 449 31 381 q 38 585 21 518 q 89 715 54 653 q 165 829 124 778 q 196 865 176 843 q 240 908 215 886 q 291 947 264 929 q 344 972 318 965 q 391 969 369 978 q 428 929 413 961 q 428 880 439 906 q 399 828 418 854 q 357 774 379 801 q 321 719 335 747 m 239 528 q 231 466 229 500 q 249 407 233 432 q 275 384 260 388 q 306 388 290 381 q 333 410 321 396 q 349 442 344 425 q 347 474 353 458 q 321 499 340 489 q 281 515 301 508 q 239 528 260 521 z "},"7":{"ha":638,"x_min":18,"x_max":613,"o":"m 294 765 q 213 767 254 765 q 131 771 171 768 q 90 777 110 772 q 54 792 69 782 q 28 819 39 803 q 18 860 18 836 q 68 936 18 913 q 111 950 88 946 q 190 967 144 957 q 282 985 235 978 q 376 991 329 992 q 463 976 424 990 q 528 933 501 963 q 563 850 554 903 q 563 784 568 817 q 547 720 557 751 q 523 658 536 689 q 500 597 510 628 q 528 591 513 594 q 560 583 544 588 q 588 570 575 578 q 606 550 600 563 q 610 518 613 533 q 599 491 608 503 q 576 472 590 479 q 544 465 561 465 q 497 467 521 465 q 450 472 474 469 q 417 406 431 440 q 390 338 404 372 q 360 269 376 303 q 319 207 344 236 q 263 173 296 181 q 197 171 229 165 q 126 217 143 181 q 111 299 108 253 q 129 393 114 346 q 156 472 144 440 q 118 469 136 472 q 82 468 100 467 q 49 482 61 469 q 35 510 38 494 q 40 542 33 526 q 67 564 47 557 q 101 570 79 568 q 147 574 124 572 q 190 581 171 576 q 214 594 210 586 q 254 676 235 635 q 294 765 274 718 z "},"8":{"ha":633,"x_min":24,"x_max":622,"o":"m 463 703 q 517 661 490 683 q 564 611 544 639 q 601 432 622 531 q 544 294 585 354 q 449 195 503 233 q 333 142 394 157 q 213 142 271 128 q 109 202 156 157 q 39 329 63 247 q 24 416 25 375 q 33 495 24 457 q 61 571 43 533 q 103 647 79 608 q 45 774 54 714 q 55 886 36 835 q 113 977 74 938 q 202 1041 153 1017 q 305 1073 251 1065 q 405 1066 358 1081 q 484 1015 451 1051 q 525 914 517 978 q 515 802 532 861 q 463 703 497 743 m 249 404 q 276 343 250 354 q 332 345 301 332 q 388 387 363 358 q 414 444 413 415 q 406 475 414 463 q 385 497 397 488 q 356 511 372 506 q 326 522 340 517 q 295 515 310 528 q 270 482 281 503 q 254 439 260 461 q 249 404 249 417 m 308 882 q 264 865 285 881 q 233 831 243 850 q 229 791 224 811 q 264 761 235 771 q 300 774 281 756 q 331 817 319 793 q 340 863 343 842 q 308 882 338 883 z "},"9":{"ha":650,"x_min":13,"x_max":626,"o":"m 315 407 q 180 447 239 407 q 87 547 121 486 q 44 682 53 608 q 59 824 36 756 q 140 948 82 893 q 293 1026 197 1003 q 375 1032 335 1036 q 451 1011 415 1028 q 517 967 488 994 q 568 903 547 940 q 619 722 613 824 q 603 521 626 621 q 530 332 581 421 q 407 189 479 243 q 310 139 361 153 q 210 127 258 125 q 122 146 163 129 q 54 187 81 163 q 20 242 28 211 q 31 307 13 274 q 64 341 44 333 q 106 348 83 349 q 152 342 128 347 q 201 337 176 338 q 249 344 225 336 q 293 378 272 351 l 315 407 m 408 761 q 388 824 404 804 q 351 842 372 843 q 310 822 331 842 q 279 768 290 803 q 265 678 261 713 q 284 627 268 643 q 324 613 300 611 q 367 631 347 614 q 400 681 388 649 q 408 761 413 714 z "},"\u0000":{"ha":0,"x_min":0,"x_max":0,"o":""},"\r":{"ha":494,"x_min":0,"x_max":0,"o":""}," ":{"ha":494,"x_min":0,"x_max":0,"o":""},"%":{"ha":663,"x_min":15,"x_max":642,"o":"m 32 214 q 39 250 31 231 q 56 283 47 269 q 110 369 76 315 q 186 485 144 422 q 274 615 228 549 q 363 742 319 682 q 445 848 407 801 q 511 915 483 894 q 572 937 542 940 q 621 911 603 933 q 640 851 639 889 q 615 771 642 814 q 550 671 585 719 q 483 572 515 622 q 359 372 419 472 q 238 168 299 271 q 183 116 217 132 q 116 105 149 100 q 59 137 83 110 q 32 214 35 164 m 168 654 q 85 673 118 651 q 34 727 51 694 q 16 799 17 760 q 31 873 15 839 q 80 930 47 907 q 163 954 113 953 q 241 933 207 954 q 294 879 275 911 q 317 808 313 847 q 306 736 321 769 q 258 680 292 703 q 168 654 224 657 m 354 281 q 372 343 354 318 q 414 381 389 368 q 469 393 439 393 q 524 381 499 393 q 565 344 549 368 q 582 282 582 319 q 565 216 582 242 q 523 178 549 190 q 467 167 497 165 q 413 181 438 168 q 371 219 388 194 q 354 281 354 244 z "},"&":{"ha":757,"x_min":10,"x_max":732,"o":"m 607 375 q 638 336 621 356 q 664 296 654 317 q 676 233 679 263 q 657 183 674 204 q 612 153 640 163 q 549 149 583 143 q 500 162 525 151 q 454 183 475 172 q 305 97 385 118 q 158 94 225 76 q 51 169 92 113 q 19 318 10 226 q 30 366 22 344 q 48 408 38 388 q 69 447 58 428 q 89 490 81 467 q 38 695 33 604 q 81 850 42 786 q 184 952 121 914 q 311 1000 247 990 q 427 991 375 1010 q 496 923 479 972 q 481 793 513 874 q 349 600 450 713 q 381 567 364 582 q 415 536 399 551 q 461 613 435 565 q 520 703 488 661 q 592 769 553 746 q 675 772 631 793 q 717 735 701 760 q 731 682 732 710 q 712 602 729 644 q 673 519 694 560 q 632 442 651 479 q 607 375 613 404 m 192 347 q 185 318 189 332 q 193 290 182 304 q 220 288 213 288 q 244 300 228 288 q 218 324 232 313 q 192 347 204 335 m 324 813 q 301 797 313 808 q 283 771 290 786 q 272 739 275 756 q 275 708 269 722 q 340 788 328 757 q 324 813 351 819 z "},"'":{"ha":292,"x_min":69,"x_max":228,"o":"m 69 767 q 71 820 71 801 q 71 851 71 839 q 71 869 71 863 q 72 888 71 876 q 104 953 78 933 q 159 970 131 972 q 208 945 188 968 q 221 882 228 922 q 210 819 215 850 q 196 756 204 788 q 168 721 189 732 q 126 712 147 710 q 87 728 104 714 q 69 767 69 742 z "},"(":{"ha":540,"x_min":32,"x_max":532,"o":"m 32 467 q 50 622 32 539 q 101 784 68 704 q 183 932 135 864 q 292 1043 231 1000 q 381 1077 333 1072 q 464 1065 428 1082 q 516 1010 500 1049 q 511 915 532 972 q 459 827 493 868 q 397 744 425 786 q 343 639 367 696 q 307 522 319 582 q 296 401 294 461 q 317 288 297 342 q 353 229 331 251 q 401 188 376 207 q 449 149 426 169 q 482 99 471 129 q 489 34 494 63 q 465 -13 483 6 q 418 -42 446 -32 q 360 -49 390 -51 q 256 -19 303 -46 q 173 51 210 8 q 110 147 136 93 q 66 256 83 200 q 40 367 49 313 q 32 467 32 422 z "},")":{"ha":500,"x_min":31,"x_max":456,"o":"m 454 508 q 443 372 456 443 q 408 231 431 300 q 351 99 385 163 q 274 -15 317 35 q 233 -49 256 -36 q 184 -66 210 -62 q 133 -63 158 -69 q 85 -39 107 -57 q 49 4 61 -21 q 34 56 36 29 q 41 110 32 83 q 69 158 50 136 q 154 295 128 225 q 194 451 181 365 q 196 627 210 543 q 146 797 182 711 q 101 865 129 838 q 51 929 74 893 q 32 986 33 957 q 50 1044 31 1015 q 96 1085 69 1075 q 157 1090 122 1094 q 255 1051 211 1083 q 331 968 299 1018 q 387 856 364 918 q 424 732 410 794 q 446 611 439 669 q 454 508 453 553 z "},"*":{"ha":368,"x_min":26,"x_max":343,"o":"m 235 913 q 289 910 263 914 q 329 894 315 906 q 340 863 343 882 q 306 814 336 843 q 326 749 328 775 q 308 714 325 724 q 263 711 292 704 q 203 743 235 718 q 192 730 196 736 q 182 717 188 724 q 138 690 165 694 q 90 696 110 685 q 65 734 69 707 q 90 803 61 761 q 38 837 49 818 q 36 872 26 856 q 73 899 46 888 q 133 910 100 910 q 149 958 135 942 q 179 975 163 975 q 212 959 196 975 q 235 913 228 943 z "},"+":{"ha":557,"x_min":31,"x_max":528,"o":"m 367 426 q 374 373 369 401 q 378 319 379 344 q 347 251 375 275 q 283 225 318 228 q 217 241 249 222 q 176 303 185 260 q 171 362 171 331 q 171 422 171 393 q 132 421 156 422 q 87 423 108 419 q 49 437 65 426 q 32 472 33 447 q 40 504 31 490 q 67 524 49 518 q 121 531 90 531 q 176 532 151 531 q 183 574 179 553 q 192 614 186 594 q 228 669 201 654 q 283 676 254 685 q 333 634 311 667 q 357 547 356 601 q 402 548 375 547 q 455 545 429 549 q 501 531 481 542 q 524 494 521 519 q 510 452 528 467 q 466 432 492 438 q 412 426 440 426 q 367 426 383 426 z "},",":{"ha":293,"x_min":31,"x_max":254,"o":"m 71 -51 q 41 -23 51 -43 q 39 22 31 -3 q 58 99 53 63 q 65 178 63 135 q 81 242 67 213 q 136 274 96 271 q 206 263 179 276 q 243 224 232 249 q 253 168 254 200 q 240 104 251 136 q 215 53 233 83 q 174 -4 197 22 q 123 -46 150 -31 q 71 -51 96 -61 z "},"-":{"ha":581,"x_min":26,"x_max":553,"o":"m 424 413 q 320 410 363 411 q 246 408 278 408 q 191 407 214 407 q 147 410 168 407 q 63 430 99 414 q 26 485 26 446 q 41 525 26 508 q 78 550 56 542 q 165 575 119 565 q 257 590 210 585 q 351 597 304 594 q 442 600 397 600 q 503 582 476 600 q 541 538 529 564 q 546 483 553 511 q 507 435 539 456 q 469 419 492 424 q 424 413 447 415 z "},".":{"ha":315,"x_min":32,"x_max":276,"o":"m 32 224 q 51 290 32 264 q 97 328 69 315 q 155 341 124 342 q 213 327 186 340 q 258 288 240 314 q 276 224 276 261 q 258 158 276 185 q 213 117 240 131 q 154 103 186 103 q 95 115 122 103 q 50 155 68 128 q 32 224 32 182 z "},"/":{"ha":467,"x_min":6,"x_max":464,"o":"m 439 867 q 406 752 425 818 q 367 612 388 686 q 323 460 346 538 q 279 313 300 383 q 240 181 258 242 q 207 81 221 121 q 159 32 196 43 q 86 32 122 21 q 32 72 50 43 q 10 139 14 100 q 11 222 6 178 q 27 310 17 267 q 49 393 38 354 q 67 460 60 432 q 88 528 74 483 q 119 626 101 572 q 156 740 136 681 q 196 852 176 799 q 232 949 215 906 q 260 1014 249 992 q 313 1076 282 1057 q 373 1094 343 1096 q 426 1074 403 1093 q 456 1019 449 1054 q 456 942 464 981 q 439 867 447 903 z "},";":{"ha":329,"x_min":31,"x_max":279,"o":"m 71 63 q 41 91 51 71 q 39 136 31 111 q 58 213 53 176 q 65 292 63 249 q 81 356 67 326 q 136 388 96 385 q 206 376 179 390 q 243 338 232 363 q 253 282 254 314 q 240 218 251 250 q 215 167 233 197 q 174 110 197 136 q 123 68 150 83 q 71 63 96 53 m 71 674 q 87 730 71 707 q 126 763 103 753 q 176 774 149 774 q 226 762 203 774 q 264 728 249 750 q 279 674 279 706 q 247 597 279 624 q 174 570 214 571 q 103 595 135 569 q 71 674 71 621 z "},"<":{"ha":407,"x_min":26,"x_max":378,"o":"m 257 515 q 290 494 274 504 q 322 471 307 483 q 357 410 353 444 q 347 349 361 376 q 301 310 332 322 q 233 314 271 297 q 74 420 121 363 q 35 535 26 478 q 102 647 43 593 q 261 740 161 700 q 285 747 272 746 q 311 747 299 749 q 345 734 331 744 q 368 708 360 724 q 377 674 376 692 q 369 638 378 656 q 319 572 351 600 q 257 515 286 543 z "},"=":{"ha":375,"x_min":36,"x_max":333,"o":"m 93 525 q 53 540 68 525 q 38 572 39 554 q 50 606 36 590 q 93 625 64 622 q 172 629 132 628 q 250 631 211 631 q 308 617 289 631 q 330 586 326 603 q 324 553 333 569 q 297 533 315 538 q 265 528 282 529 q 225 526 249 526 q 169 525 201 525 q 93 525 138 525 m 103 381 q 66 394 79 381 q 51 424 53 407 q 59 456 49 440 q 94 478 69 472 q 188 488 139 489 q 283 488 238 488 q 315 476 303 488 q 329 448 326 464 q 325 417 332 432 q 300 394 318 401 q 278 389 289 390 q 254 386 267 388 q 231 385 243 386 q 202 385 219 385 q 161 383 185 385 q 103 381 138 382 z "},">":{"ha":385,"x_min":18,"x_max":361,"o":"m 142 551 q 103 582 122 567 q 65 613 85 597 q 36 646 47 628 q 28 688 25 664 q 63 744 31 729 q 141 753 96 760 q 234 719 186 746 q 314 652 282 693 q 353 558 346 611 q 326 447 361 506 q 297 408 315 429 q 255 366 278 386 q 208 329 232 346 q 164 307 183 313 q 85 310 119 293 q 35 359 51 328 q 23 428 18 390 q 64 496 28 467 q 103 524 83 511 q 142 551 122 538 z "},"?":{"ha":585,"x_min":18,"x_max":564,"o":"m 264 1008 q 435 962 365 1008 q 535 845 506 915 q 547 693 564 775 q 457 540 529 611 q 393 481 426 511 q 342 411 360 450 q 286 354 322 368 q 215 350 250 340 q 158 392 181 360 q 142 474 135 424 q 165 551 149 519 q 205 608 182 582 q 253 658 228 633 q 303 717 279 683 q 313 747 317 736 q 290 769 310 758 q 249 781 271 781 q 203 778 226 782 q 157 770 181 775 q 113 765 133 765 q 67 776 88 765 q 35 806 47 788 q 21 846 24 824 q 28 892 18 868 q 67 946 40 924 q 128 982 94 968 q 197 1002 161 996 q 264 1008 232 1008 m 233 297 q 301 269 278 297 q 324 206 324 240 q 303 144 325 172 q 235 115 281 115 q 167 144 189 115 q 144 206 144 172 q 167 269 144 240 q 233 297 189 297 z "},"_":{"ha":538,"x_min":-1,"x_max":506,"o":"m 67 -24 q 13 15 26 -19 q 22 74 -1 51 q 84 110 46 97 q 164 128 122 124 q 228 135 206 133 q 278 139 249 136 q 340 142 308 142 q 403 140 372 143 q 458 128 435 138 q 493 100 481 118 q 501 51 506 82 q 479 10 497 24 q 436 -10 461 -4 q 349 -23 397 -18 q 251 -28 301 -28 q 153 -28 201 -29 q 67 -24 106 -26 z "},"~":{"ha":613,"x_min":28,"x_max":590,"o":"m 228 451 q 160 362 194 388 q 99 338 126 336 q 53 363 71 339 q 31 424 35 388 q 44 503 28 460 q 100 586 60 546 q 166 626 133 621 q 228 619 199 632 q 287 583 258 607 q 340 532 315 558 q 381 505 365 507 q 426 524 397 503 q 446 540 438 531 q 465 557 454 550 q 510 569 485 571 q 553 556 535 568 q 581 524 572 544 q 579 476 590 503 q 543 424 567 447 q 490 388 519 401 q 428 372 461 375 q 365 381 396 369 q 295 415 326 393 q 228 451 264 438 z "},"^":{"ha":438,"x_min":40,"x_max":417,"o":"m 224 782 q 203 734 215 763 q 175 680 192 706 q 138 638 158 654 q 90 631 117 622 q 51 663 61 639 q 43 721 40 688 q 60 792 46 754 q 93 863 74 829 q 134 924 113 897 q 176 961 156 950 q 245 980 215 982 q 299 960 275 978 q 340 914 322 943 q 370 852 357 885 q 392 786 383 819 q 407 728 400 753 q 401 660 417 692 q 344 622 385 628 q 292 635 311 618 q 260 677 272 651 q 240 732 247 703 q 224 782 232 761 z "},"]":{"ha":482,"x_min":19,"x_max":450,"o":"m 186 179 q 199 370 192 275 q 213 560 207 465 q 222 751 219 656 q 221 943 225 847 q 183 947 204 944 q 140 951 161 949 q 99 960 118 954 q 65 975 79 965 q 30 1013 40 992 q 20 1055 19 1033 q 33 1097 21 1076 q 65 1136 44 1118 q 155 1176 104 1163 q 256 1185 206 1189 q 351 1158 307 1181 q 421 1090 396 1136 q 443 1032 436 1063 q 450 971 450 1001 q 431 543 450 756 q 392 117 411 331 q 360 22 386 54 q 275 -29 335 -11 q 225 -42 251 -36 q 175 -51 199 -49 q 110 -40 139 -54 q 65 -1 82 -25 q 44 53 49 24 q 54 110 40 83 q 100 156 68 136 q 186 179 132 175 z "},"}":{"ha":424,"x_min":17,"x_max":392,"o":"m 139 603 q 88 703 99 650 q 83 810 78 756 q 99 922 88 865 q 115 1032 111 978 q 35 1094 49 1063 q 39 1150 21 1125 q 97 1188 57 1175 q 182 1195 138 1201 q 264 1158 226 1189 q 313 1063 301 1126 q 316 984 319 1024 q 305 906 313 944 q 288 828 297 867 q 272 751 278 789 q 276 712 268 726 q 297 689 283 697 q 327 674 311 681 q 358 658 343 668 q 382 632 372 649 q 390 585 392 615 q 374 533 389 550 q 342 508 360 517 q 308 490 324 499 q 288 460 292 481 q 283 374 281 421 q 288 277 285 326 q 292 180 292 228 q 280 90 292 132 q 238 17 268 49 q 154 -29 208 -14 q 117 -35 136 -35 q 82 -28 99 -35 q 37 8 53 -15 q 19 57 21 31 q 30 108 17 83 q 72 146 43 132 q 106 175 97 158 q 114 219 115 192 q 107 324 111 279 q 103 412 103 369 q 110 499 103 454 q 139 603 117 544 z "},"|":{"ha":407,"x_min":38,"x_max":381,"o":"m 376 868 q 365 747 371 817 q 350 598 358 676 q 333 438 342 519 q 315 280 324 356 q 299 140 307 204 q 285 32 290 75 q 241 -26 278 -8 q 163 -39 204 -43 q 94 -9 119 -35 q 56 54 69 17 q 40 138 43 92 q 40 231 38 185 q 46 317 42 276 q 53 388 50 358 q 61 460 56 413 q 75 566 67 508 q 93 687 83 624 q 113 808 103 750 q 133 912 124 865 q 151 983 143 958 q 197 1056 167 1031 q 259 1085 226 1081 q 322 1074 292 1089 q 365 1025 351 1058 q 380 948 381 989 q 376 868 379 907 z "},"{":{"ha":417,"x_min":17,"x_max":399,"o":"m 242 528 q 291 426 283 469 q 292 342 299 382 q 274 260 286 301 q 264 167 261 219 q 273 143 264 151 q 294 130 282 135 q 319 119 306 125 q 342 106 332 114 q 363 67 360 89 q 359 24 367 44 q 334 -12 351 3 q 293 -26 317 -26 q 140 19 201 -26 q 68 161 79 65 q 68 224 65 192 q 75 288 71 256 q 83 353 79 321 q 88 417 88 385 q 69 450 88 432 q 35 492 50 468 q 18 545 19 515 q 51 614 17 575 q 79 644 65 631 q 103 672 93 657 q 119 704 114 686 q 122 746 124 722 q 110 821 118 786 q 99 889 103 856 q 97 956 94 922 q 114 1032 99 990 q 171 1120 132 1081 q 253 1177 210 1160 q 335 1182 296 1194 q 390 1113 374 1169 q 392 1063 399 1082 q 372 1029 386 1043 q 340 1004 358 1015 q 305 978 321 993 q 279 943 289 964 q 274 889 269 922 q 283 848 276 868 q 292 807 289 828 q 303 726 299 760 q 303 661 307 692 q 285 600 299 631 q 242 528 271 569 z "},"[":{"ha":490,"x_min":35,"x_max":468,"o":"m 257 913 q 252 735 250 826 q 261 550 254 643 q 278 365 268 457 q 296 186 288 272 l 340 186 q 429 152 400 186 q 460 77 458 118 q 440 0 463 36 q 372 -42 417 -36 q 281 -43 328 -47 q 193 -21 235 -39 q 98 51 126 7 q 58 165 69 96 q 44 288 50 215 q 37 442 39 360 q 36 614 35 525 q 42 785 38 703 q 57 937 47 867 q 81 1054 67 1007 q 133 1138 96 1107 q 215 1179 169 1168 q 307 1185 260 1190 q 391 1158 354 1179 q 448 1101 428 1136 q 458 1019 468 1065 q 429 958 450 979 q 381 928 408 938 q 321 917 353 919 q 257 913 289 915 z "},"\\":{"ha":483,"x_min":4,"x_max":463,"o":"m 29 867 q 13 942 21 903 q 13 1019 4 981 q 42 1074 18 1054 q 95 1094 65 1093 q 156 1076 125 1096 q 208 1014 186 1057 q 236 949 219 992 q 272 852 253 906 q 312 740 292 799 q 349 626 332 681 q 381 528 367 572 q 401 460 394 483 q 419 393 408 432 q 441 310 431 354 q 457 222 451 267 q 458 139 463 178 q 436 72 454 100 q 382 32 418 43 q 309 32 346 21 q 261 81 272 43 q 228 181 247 121 q 189 313 210 242 q 145 460 168 383 q 101 612 122 538 q 62 752 81 686 q 29 867 43 818 z "},"÷":{"ha":606,"x_min":22,"x_max":568,"o":"m 71 410 q 30 453 38 428 q 33 502 22 478 q 69 544 44 526 q 124 567 94 563 q 212 574 158 571 q 323 576 265 576 q 433 572 381 575 q 518 560 486 568 q 553 540 539 554 q 568 501 568 525 q 555 464 568 478 q 521 443 542 450 q 466 429 503 436 q 384 416 429 422 q 290 406 339 410 q 197 399 240 401 q 119 399 153 397 q 71 410 85 401 m 356 288 q 338 247 356 261 q 297 233 319 233 q 258 245 275 232 q 240 286 240 258 q 258 329 240 315 q 298 343 276 343 q 338 329 319 343 q 356 288 356 315 m 353 658 q 335 618 353 632 q 297 604 318 604 q 258 617 276 604 q 240 656 240 629 q 258 697 240 682 q 296 712 275 711 q 335 699 317 713 q 353 658 353 686 z "},"×":{"ha":447,"x_min":17,"x_max":428,"o":"m 335 478 q 365 451 350 464 q 393 422 379 438 q 424 347 428 385 q 392 291 419 308 q 322 289 365 274 q 235 374 279 304 q 190 335 211 358 q 146 292 169 311 q 90 271 117 268 q 44 290 63 274 q 22 334 26 307 q 35 386 17 361 q 128 496 76 444 q 88 531 111 513 q 60 572 65 549 q 70 617 53 600 q 115 626 88 633 q 160 606 140 619 q 201 576 181 592 q 240 608 221 593 q 282 638 260 622 q 328 654 304 653 q 371 647 351 656 q 402 622 390 639 q 413 582 414 604 q 393 533 411 560 q 335 478 375 506 z "},"¢":{"ha":618,"x_min":24,"x_max":585,"o":"m 421 294 q 436 204 439 243 q 417 142 433 165 q 378 111 401 118 q 335 117 356 104 q 299 165 314 131 q 286 260 285 200 q 142 300 200 260 q 56 402 85 340 q 25 538 26 464 q 49 680 24 613 q 126 798 74 747 q 256 865 178 849 q 247 921 253 896 q 243 978 240 946 q 259 1019 244 1003 q 294 1040 274 1036 q 334 1035 314 1044 q 367 997 354 1025 q 379 962 376 976 q 381 933 382 947 q 378 905 381 919 q 376 871 376 890 q 419 849 399 858 q 457 827 439 839 q 490 799 475 815 q 517 757 506 783 q 528 685 532 721 q 497 619 524 649 q 454 589 475 594 q 415 588 433 583 q 378 604 396 593 q 344 622 360 615 q 314 628 328 629 q 288 607 300 626 q 266 558 272 583 q 260 506 260 532 q 278 471 260 476 q 326 472 297 465 q 392 490 356 478 q 463 508 428 501 q 526 508 497 514 q 572 474 556 503 q 583 432 585 451 q 572 397 582 413 q 547 367 563 381 q 513 342 531 353 q 467 317 492 328 q 421 294 443 307 z "},"£":{"ha":736,"x_min":22,"x_max":714,"o":"m 357 761 q 344 681 346 731 q 350 589 343 631 q 397 590 368 589 q 453 585 426 590 q 500 565 481 579 q 518 522 519 551 q 500 481 518 494 q 457 463 482 468 q 405 459 432 458 q 360 460 378 460 q 352 419 356 439 q 346 378 349 399 q 405 385 375 381 q 465 394 435 390 q 524 400 494 399 q 583 399 554 401 q 678 356 646 392 q 712 277 710 319 q 687 199 714 235 q 604 157 660 163 q 544 156 575 154 q 483 160 514 157 q 422 165 453 163 q 361 168 392 168 q 274 168 318 168 q 188 163 231 168 q 165 158 176 161 q 142 156 153 156 q 91 171 111 154 q 64 218 71 188 q 71 279 56 257 q 106 324 86 301 q 142 375 126 346 q 151 457 157 404 q 113 460 132 460 q 74 468 93 461 q 36 492 49 476 q 23 523 24 507 q 35 553 22 539 q 74 575 47 567 q 106 581 89 581 q 139 585 124 582 q 138 658 139 621 q 140 732 138 696 q 151 804 143 768 q 174 874 158 840 q 232 956 194 919 q 314 1016 269 993 q 407 1047 358 1039 q 499 1043 456 1054 q 578 999 543 1032 q 633 908 614 967 q 639 824 649 863 q 606 759 629 786 q 551 717 583 732 q 488 703 518 703 q 433 722 457 704 q 404 776 410 739 q 386 796 401 797 q 357 761 371 794 z "},"¥":{"ha":635,"x_min":19,"x_max":601,"o":"m 431 478 q 414 431 419 454 q 471 431 442 431 q 524 415 500 431 q 546 390 539 406 q 551 358 553 375 q 528 318 549 331 q 479 303 507 306 q 422 303 451 300 q 375 308 393 306 q 352 221 363 264 q 329 133 342 178 q 288 74 318 92 q 222 58 257 56 q 158 83 188 61 q 119 144 129 104 q 115 187 114 165 q 122 229 117 208 q 133 271 126 250 q 144 311 140 292 q 108 310 126 311 q 72 313 90 310 q 35 330 47 315 q 21 363 22 344 q 30 397 19 381 q 64 418 40 413 q 116 429 89 425 q 169 436 143 433 q 188 439 182 438 q 198 444 194 440 q 203 455 201 447 q 208 475 206 463 q 144 472 176 475 q 81 472 113 469 q 48 486 60 474 q 34 515 36 499 q 41 546 32 531 q 71 567 50 561 q 123 576 97 574 q 176 582 149 579 q 132 688 163 629 q 78 806 101 746 q 48 922 54 865 q 76 1024 42 978 q 164 1076 113 1071 q 257 1036 215 1081 q 292 989 278 1014 q 315 937 306 964 q 333 882 325 910 q 349 826 340 854 q 385 881 367 849 q 427 940 404 914 q 478 979 450 967 q 546 972 507 992 q 585 934 572 958 q 593 882 597 910 q 575 825 590 865 q 540 740 560 785 q 500 653 519 694 q 472 590 481 611 q 512 588 492 588 q 551 586 532 589 q 589 567 576 583 q 601 533 601 551 q 588 500 600 515 q 550 483 575 485 q 490 479 521 481 q 431 478 460 478 z "},"`":{"ha":324,"x_min":43,"x_max":294,"o":"m 103 1040 q 140 1031 117 1040 q 188 1006 164 1022 q 235 970 213 990 q 274 929 258 950 q 292 888 289 908 q 279 850 294 867 q 221 835 254 824 q 188 852 213 838 q 135 885 163 867 q 86 919 108 903 q 58 943 64 936 q 45 974 47 957 q 51 1007 43 992 q 73 1030 58 1019 q 103 1040 88 1040 z "},"@":{"ha":871,"x_min":22,"x_max":842,"o":"m 499 522 q 521 535 508 531 q 553 538 533 540 q 576 530 565 536 q 595 519 586 524 q 613 514 604 514 q 632 526 622 514 q 671 607 663 564 q 669 692 679 650 q 635 769 660 733 q 574 830 610 806 q 496 861 539 854 q 406 853 453 868 q 325 794 357 836 q 275 698 293 751 q 253 588 257 644 q 256 488 249 532 q 297 379 267 417 q 368 325 328 342 q 456 306 408 308 q 549 303 503 304 q 637 298 596 303 q 706 271 678 293 q 743 207 740 243 q 717 138 746 171 q 660 98 693 111 q 592 81 628 85 q 519 78 556 76 q 450 82 482 79 q 250 136 333 90 q 115 252 167 182 q 43 409 64 322 q 28 585 22 496 q 67 760 35 675 q 153 910 99 844 q 285 1017 208 976 q 458 1057 363 1057 q 631 1022 558 1057 q 749 929 703 986 q 819 802 796 872 q 842 661 842 732 q 822 527 842 590 q 763 423 801 464 q 667 369 724 382 q 540 386 611 356 q 526 383 539 386 q 499 376 514 381 q 469 368 483 372 q 449 364 454 364 q 361 374 396 357 q 307 424 326 392 q 281 497 288 456 q 281 583 275 539 q 303 667 286 626 q 344 735 319 707 q 401 775 368 761 q 468 792 433 789 q 536 788 503 796 q 594 763 569 781 q 631 717 618 744 q 636 653 643 689 q 595 594 629 613 q 524 590 561 576 q 508 599 515 593 q 492 608 500 604 q 476 611 485 611 q 460 601 468 611 q 436 551 443 585 q 432 497 428 510 q 447 486 436 483 q 472 501 457 489 q 499 522 486 513 z "},"A":{"ha":938,"x_min":15,"x_max":922,"o":"m 560 363 q 462 355 511 358 q 364 349 413 351 q 347 344 351 347 q 335 329 342 340 q 288 237 311 285 q 235 149 264 189 q 185 112 214 119 q 131 115 156 104 q 89 151 106 125 q 76 211 72 176 q 88 260 79 235 q 104 308 97 285 q 74 313 89 310 q 46 323 58 317 q 26 341 33 329 q 17 372 18 353 q 36 419 15 407 q 85 438 57 432 q 142 449 114 443 q 182 479 169 456 q 295 685 239 585 q 433 876 351 786 q 483 914 456 901 q 538 926 510 926 q 592 911 565 925 q 639 869 618 897 q 678 794 664 836 q 701 707 692 751 q 720 618 711 663 q 743 535 729 574 q 792 534 763 533 q 850 531 822 535 q 899 514 878 526 q 919 474 919 501 q 871 411 922 422 q 818 401 851 407 q 769 386 785 396 q 781 323 774 358 q 788 254 789 288 q 773 194 788 221 q 719 157 758 167 q 665 163 692 150 q 624 200 638 175 q 590 281 603 239 q 560 363 576 322 m 425 486 q 472 492 449 489 q 518 497 494 494 q 506 543 511 521 q 494 589 501 565 l 490 589 q 457 538 474 564 q 425 486 440 513 z "},"B":{"ha":821,"x_min":4,"x_max":793,"o":"m 547 635 q 695 547 640 597 q 772 442 750 497 q 782 331 793 388 q 732 226 771 275 q 628 138 693 176 q 476 78 563 99 q 374 56 426 67 q 272 31 321 46 q 245 9 265 28 q 198 -23 225 -10 q 140 -31 171 -36 q 79 19 108 -26 q 46 63 64 44 q 17 101 28 81 q 5 145 6 121 q 25 206 4 169 q 39 238 36 225 q 40 271 42 250 q 34 476 33 374 q 44 682 35 579 q 56 758 47 715 q 80 843 65 800 q 113 925 94 886 q 154 989 132 964 q 198 1022 178 1015 q 237 1026 218 1028 q 272 1019 256 1024 q 307 1019 289 1015 q 471 1042 394 1043 q 603 1018 547 1040 q 690 957 658 996 q 718 867 721 918 q 675 756 715 815 q 547 635 635 697 m 275 506 q 266 410 271 457 q 258 314 261 363 q 401 347 351 318 q 456 409 451 375 q 416 472 460 443 q 275 506 372 501 m 338 867 q 331 839 335 856 q 322 804 326 822 q 315 769 318 786 q 310 742 311 751 q 414 779 383 751 q 442 832 444 807 q 411 870 440 857 q 338 867 382 883 z "},"C":{"ha":707,"x_min":13,"x_max":689,"o":"m 386 192 q 210 222 286 186 q 88 319 135 257 q 27 460 42 381 q 33 621 13 539 q 115 780 54 703 q 278 914 175 857 q 388 950 335 944 q 485 943 440 956 q 562 904 529 931 q 611 844 594 878 q 625 772 628 810 q 596 700 622 733 q 526 658 568 664 q 449 683 483 653 q 403 689 429 700 q 353 654 378 678 q 311 601 329 631 q 289 554 293 572 q 298 484 278 515 q 356 442 318 453 q 419 433 388 432 q 483 438 451 435 q 549 442 515 442 q 619 429 583 442 q 683 353 674 410 q 670 290 689 317 q 620 244 651 263 q 552 216 589 226 q 488 201 515 206 q 437 196 463 199 q 386 192 411 193 z "},"D":{"ha":750,"x_min":25,"x_max":749,"o":"m 38 821 q 72 933 49 899 q 110 969 93 963 q 146 973 128 975 q 184 965 164 971 q 229 965 204 960 q 326 983 282 976 q 413 987 371 989 q 497 972 454 985 q 588 931 539 958 q 716 785 683 875 q 719 590 749 694 q 676 501 708 550 q 600 403 644 453 q 503 306 556 354 q 394 219 450 258 q 286 153 339 181 q 189 115 233 125 q 123 117 156 108 q 64 147 90 125 q 48 172 54 156 q 37 212 42 189 q 30 263 32 235 q 26 318 28 290 q 25 371 25 342 q 26 453 25 400 q 31 593 28 506 q 38 821 33 681 m 257 765 q 249 668 251 711 q 244 588 246 625 q 240 519 242 551 q 239 454 239 488 q 334 510 288 475 q 415 586 381 546 q 464 665 449 626 q 465 732 479 704 q 402 771 451 760 q 257 765 353 782 z "},"E":{"ha":663,"x_min":19,"x_max":638,"o":"m 294 715 q 387 712 338 713 q 476 699 436 711 q 536 653 517 686 q 553 586 556 621 q 529 524 551 551 q 464 497 507 497 q 365 503 415 497 q 267 511 315 510 l 258 435 q 342 424 293 426 q 438 417 390 422 q 530 401 486 413 q 599 365 574 390 q 627 296 625 340 q 597 181 629 251 q 566 143 586 157 q 519 128 546 129 q 423 127 475 125 q 317 138 371 129 q 214 165 264 147 q 124 212 164 183 q 57 281 83 240 q 26 378 31 322 q 26 523 19 451 q 48 665 33 594 q 82 806 63 736 q 122 944 101 875 q 135 974 128 963 q 161 992 143 985 q 237 1013 190 1003 q 336 1028 283 1024 q 443 1031 389 1033 q 540 1014 497 1029 q 610 969 583 999 q 636 890 638 939 q 613 814 635 839 q 558 779 592 789 q 486 770 525 769 q 411 772 447 771 q 355 776 383 774 q 299 782 326 778 l 294 715 z "},"F":{"ha":749,"x_min":18,"x_max":735,"o":"m 307 731 q 300 649 304 690 q 292 568 296 608 q 356 578 317 574 q 438 583 396 582 q 517 581 479 585 q 579 568 556 578 q 624 526 613 553 q 629 469 635 499 q 603 416 624 440 q 550 385 582 392 q 413 361 479 369 q 274 350 346 353 q 272 288 274 328 q 266 207 269 249 q 258 128 263 165 q 246 72 253 90 q 215 30 236 47 q 165 10 193 13 q 72 58 103 3 q 45 144 56 86 q 28 274 35 201 q 20 426 22 346 q 20 581 18 507 q 27 714 22 654 q 40 806 32 774 q 80 893 51 854 q 147 960 108 932 q 247 1012 193 993 q 359 1040 301 1031 q 476 1051 417 1049 q 589 1056 535 1054 q 663 1040 632 1057 q 711 995 694 1022 q 731 935 728 968 q 722 872 735 903 q 683 817 710 842 q 611 785 656 793 q 460 756 533 769 q 307 731 386 742 z "},"G":{"ha":743,"x_min":14,"x_max":721,"o":"m 446 335 q 380 367 414 353 q 322 410 346 381 q 299 469 297 442 q 323 521 301 497 q 380 560 344 544 q 457 585 415 576 q 542 591 499 593 q 622 576 586 589 q 695 514 669 558 q 711 421 721 469 q 667 306 700 363 q 588 202 635 249 q 485 122 542 156 q 370 77 429 89 q 251 81 311 65 q 140 144 192 96 q 53 276 83 197 q 19 442 24 354 q 33 620 14 531 q 92 786 51 710 q 195 917 133 863 q 338 990 257 972 q 469 983 401 1004 q 586 919 538 963 q 651 815 635 875 q 629 690 668 754 q 563 644 603 647 q 492 681 524 642 q 444 733 468 710 q 397 765 421 757 q 347 758 372 772 q 296 699 322 744 q 254 603 272 658 q 229 492 236 549 q 231 380 222 435 q 267 283 239 325 q 301 253 282 260 q 349 253 321 247 q 406 283 376 258 q 446 335 436 308 z "},"H":{"ha":892,"x_min":14,"x_max":857,"o":"m 518 486 q 428 480 472 483 q 338 472 383 476 q 343 377 336 439 q 357 249 350 315 q 368 128 364 183 q 367 51 372 72 q 341 15 360 29 q 299 -3 322 1 q 252 4 274 -6 q 215 33 231 14 q 199 74 208 43 q 181 145 190 104 q 162 232 171 186 q 144 321 153 278 q 130 399 136 364 q 121 451 124 433 q 106 453 114 453 q 92 453 99 453 q 42 472 61 454 q 19 512 24 489 q 24 557 14 535 q 60 592 33 579 q 77 599 68 596 q 94 607 86 601 q 93 698 94 644 q 93 808 92 751 q 101 915 94 864 q 126 999 108 965 q 159 1032 139 1021 q 201 1044 179 1043 q 244 1034 224 1044 q 279 1003 265 1024 q 305 928 297 974 q 316 832 313 882 q 322 734 319 782 q 331 651 324 686 q 437 656 383 654 q 544 661 490 658 q 573 807 561 736 q 611 953 585 878 q 630 999 619 976 q 656 1037 640 1021 q 692 1061 671 1053 q 746 1067 714 1069 q 811 1038 786 1063 q 843 978 836 1014 q 851 826 856 904 q 847 674 846 747 q 853 419 849 547 q 850 165 857 292 q 824 77 847 113 q 765 23 800 42 q 691 3 731 4 q 617 17 651 3 q 556 62 582 32 q 524 138 529 92 q 515 312 513 225 q 518 486 518 399 z "},"I":{"ha":357,"x_min":24,"x_max":324,"o":"m 319 714 q 308 566 313 636 q 297 428 303 496 q 286 297 292 361 q 271 168 281 232 q 227 110 264 128 q 149 97 190 93 q 81 127 106 101 q 42 190 56 153 q 26 274 29 228 q 26 367 24 321 q 32 453 28 413 q 39 524 36 494 q 58 678 46 601 q 94 829 71 754 q 140 901 110 876 q 202 931 169 926 q 265 919 235 935 q 308 871 294 904 q 323 794 324 835 q 319 714 322 753 z "},"J":{"ha":551,"x_min":-117,"x_max":510,"o":"m 201 -182 q 119 -226 165 -210 q 31 -240 74 -242 q -48 -216 -12 -239 q -99 -142 -83 -193 q -101 -26 -117 -81 q -43 75 -86 28 q 44 171 3 126 q 115 264 85 215 q 165 369 146 313 q 185 499 183 425 q 181 623 186 560 q 165 746 176 686 q 158 781 163 761 q 151 821 154 800 q 146 861 147 842 q 147 897 144 881 q 183 969 154 947 q 247 989 211 990 q 317 965 282 988 q 372 903 353 942 q 479 598 449 751 q 490 303 510 444 q 399 36 469 161 q 201 -182 328 -89 z "},"K":{"ha":940,"x_min":22,"x_max":901,"o":"m 392 807 q 524 888 458 844 q 658 965 589 931 q 706 982 681 976 q 754 979 731 988 q 809 935 790 967 q 824 865 828 903 q 797 800 821 833 q 742 735 774 767 q 676 677 710 704 q 619 629 643 650 q 680 607 646 619 q 747 578 714 594 q 810 544 781 563 q 858 504 839 525 q 897 416 893 464 q 881 328 901 368 q 819 263 861 288 q 722 249 778 239 q 627 278 681 256 q 519 328 574 300 q 413 386 464 357 q 322 436 361 415 q 306 385 315 422 q 286 306 296 349 q 267 223 276 264 q 251 161 258 182 q 201 103 239 121 q 124 92 164 85 q 53 132 85 99 q 22 231 22 165 q 37 383 22 299 q 72 553 51 467 q 116 722 93 639 q 157 874 139 806 q 175 927 164 899 q 203 979 186 956 q 244 1017 221 1003 q 297 1029 267 1032 q 376 969 353 1024 q 392 889 392 933 q 392 807 392 844 z "},"L":{"ha":718,"x_min":24,"x_max":685,"o":"m 289 390 q 367 392 324 390 q 454 392 410 393 q 541 382 499 390 q 615 354 583 374 q 666 301 647 335 q 682 214 685 267 q 677 183 681 197 q 667 154 674 169 q 615 87 647 106 q 531 67 582 68 q 364 79 447 64 q 199 113 281 94 q 31 308 39 149 q 27 394 29 339 q 24 517 25 450 q 24 658 24 585 q 29 797 25 732 q 42 912 33 861 q 65 986 51 963 q 113 1027 85 1018 q 167 1027 140 1036 q 215 994 193 1018 q 243 939 236 971 q 265 802 258 871 q 274 665 271 733 q 278 527 276 596 q 289 390 281 458 z "},"M":{"ha":1007,"x_min":22,"x_max":969,"o":"m 690 654 q 647 615 669 633 q 603 578 625 597 q 516 503 551 533 q 445 463 481 472 q 369 468 410 453 q 267 532 328 483 l 250 371 q 245 299 247 340 q 234 222 243 258 q 202 160 225 186 q 135 135 179 135 q 76 151 99 135 q 40 199 54 167 q 29 261 33 215 q 24 369 25 307 q 23 500 22 431 q 26 632 24 569 q 32 743 28 694 q 42 811 36 792 q 73 872 51 847 q 122 908 94 897 q 183 915 150 918 q 247 890 215 911 q 297 850 274 874 q 340 801 319 826 q 381 749 361 775 q 425 703 401 724 q 496 758 460 726 q 567 825 532 790 q 636 895 603 860 q 700 961 669 931 q 755 998 725 986 q 815 1008 785 1010 q 873 989 846 1006 q 919 942 900 972 q 948 858 938 913 q 964 738 958 804 q 969 600 969 672 q 964 460 968 528 q 951 337 960 393 q 933 247 943 281 q 870 165 915 189 q 778 147 825 140 q 697 188 732 153 q 661 279 661 222 q 674 439 661 360 q 687 544 681 490 q 690 654 693 597 z "},"N":{"ha":850,"x_min":19,"x_max":839,"o":"m 506 658 q 517 830 511 747 q 551 1000 524 913 q 593 1077 565 1044 q 672 1115 621 1110 q 756 1099 717 1121 q 814 1036 796 1078 q 838 888 839 975 q 819 711 838 801 q 771 538 801 621 q 707 400 740 454 q 576 295 656 317 q 408 314 496 274 q 317 376 354 340 q 233 447 279 413 q 231 349 233 399 q 226 250 229 299 q 203 190 224 215 q 146 163 182 164 q 99 174 118 161 q 67 211 79 188 q 53 255 60 224 q 42 327 47 286 q 32 414 36 368 q 25 502 28 460 q 21 578 22 544 q 21 629 19 613 q 46 703 24 671 q 110 747 68 736 q 175 745 140 756 q 244 713 210 735 q 314 661 279 690 q 382 603 349 632 q 452 546 428 563 q 487 537 476 529 q 500 574 497 544 q 506 658 503 604 z "},"O":{"ha":622,"x_min":26,"x_max":596,"o":"m 88 294 q 40 394 54 342 q 29 504 26 446 q 41 592 31 547 q 71 676 51 636 q 119 751 90 717 q 188 806 149 785 q 369 851 282 863 q 529 757 456 840 q 590 614 585 694 q 566 454 596 533 q 480 310 536 375 q 356 213 424 244 q 217 197 289 182 q 88 294 146 213 m 379 611 q 365 649 378 639 q 337 657 353 660 q 306 642 321 654 q 282 613 290 629 q 252 521 256 558 q 260 465 249 483 q 291 445 271 446 q 331 463 311 444 q 365 517 350 481 q 379 611 379 554 z "},"P":{"ha":788,"x_min":31,"x_max":771,"o":"m 31 703 q 34 751 31 726 q 42 800 38 776 q 86 902 53 856 q 168 984 119 949 q 276 1043 217 1019 q 396 1076 335 1067 q 515 1081 457 1086 q 621 1056 574 1076 q 694 1006 663 1038 q 743 936 725 975 q 766 853 761 897 q 761 767 771 810 q 700 640 744 697 q 596 534 656 582 q 470 449 536 486 q 344 382 404 411 q 328 368 332 375 q 324 347 324 361 q 325 283 324 317 q 326 215 326 249 q 324 147 326 181 q 317 85 322 114 q 294 40 310 58 q 251 14 279 21 q 206 14 226 8 q 169 33 185 19 q 144 65 154 46 q 128 108 133 85 q 103 218 114 163 q 81 329 92 274 q 65 416 74 367 q 48 517 56 465 q 35 617 40 568 q 31 703 31 665 m 340 599 q 473 664 429 632 q 528 722 517 696 q 524 767 539 749 q 478 792 508 785 q 408 791 447 799 q 332 757 368 783 l 340 599 z "},"Q":{"ha":815,"x_min":25,"x_max":793,"o":"m 557 140 q 589 41 572 90 q 600 -61 606 -8 q 565 -130 596 -107 q 498 -153 535 -153 q 427 -131 461 -153 q 383 -62 393 -108 q 372 -6 376 -35 q 363 50 368 22 q 360 62 361 57 q 360 74 360 67 q 224 105 285 74 q 115 194 163 136 q 53 306 75 244 q 28 435 32 368 q 38 572 25 503 q 77 704 50 642 q 144 819 104 767 q 233 908 183 872 q 246 919 240 914 q 257 932 251 925 q 362 1017 301 986 q 485 1050 422 1047 q 606 1026 547 1053 q 708 936 665 999 q 772 798 751 874 q 790 647 793 722 q 755 453 788 547 q 674 272 722 360 q 619 202 650 229 q 557 140 589 175 m 482 383 q 553 528 532 447 q 565 689 574 608 q 556 742 563 717 q 533 792 549 768 q 468 815 508 829 q 406 765 433 804 q 360 674 379 726 q 331 564 342 622 q 320 456 321 506 q 328 374 319 407 q 358 339 338 340 q 354 410 354 374 q 369 457 354 439 q 406 475 385 475 q 448 453 426 475 q 482 383 469 432 z "},"R":{"ha":731,"x_min":21,"x_max":713,"o":"m 418 508 q 490 453 453 479 q 561 399 526 426 q 628 342 596 372 q 690 275 661 313 q 710 215 713 246 q 690 160 708 183 q 642 126 671 138 q 581 128 613 115 q 502 169 547 140 q 412 231 457 197 q 328 301 367 265 q 267 367 289 338 l 261 361 q 252 289 254 326 q 249 213 250 251 q 242 138 247 175 q 225 68 238 101 q 189 29 215 44 q 139 14 163 14 q 65 47 94 14 q 31 122 36 79 q 23 226 25 164 q 22 358 21 288 q 28 503 24 428 q 42 647 33 578 q 60 776 50 717 q 85 876 71 836 q 148 967 103 931 q 250 1021 193 1003 q 367 1040 307 1039 q 474 1029 426 1042 q 552 992 517 1017 q 610 933 588 968 q 638 858 632 899 q 628 771 643 817 q 591 701 615 736 q 537 631 567 665 q 476 566 507 597 q 418 508 444 535 m 299 685 q 376 742 353 707 q 399 807 400 778 q 375 850 399 836 q 313 843 351 864 l 299 685 z "},"S":{"ha":774,"x_min":26,"x_max":788,"o":"m 468 799 q 436 785 460 794 q 385 763 413 775 q 332 735 358 750 q 290 705 306 721 q 274 672 274 689 q 301 642 275 656 q 375 606 338 622 q 449 574 413 590 q 522 540 486 558 q 593 497 558 522 q 661 433 632 469 q 704 354 690 396 q 715 268 718 313 q 689 178 713 224 q 622 97 664 129 q 532 42 581 64 q 321 -8 432 -1 q 253 1 285 -11 q 199 37 222 14 q 165 91 176 60 q 157 158 153 122 q 222 290 168 256 q 369 318 276 325 q 408 319 386 317 q 443 328 429 321 q 455 347 457 335 q 419 375 453 358 q 338 414 381 396 q 253 452 294 432 q 172 496 211 472 q 100 549 132 519 q 33 667 39 604 q 58 792 26 731 q 152 908 90 853 q 288 1006 214 964 q 442 1070 363 1047 q 589 1090 521 1093 q 693 1065 650 1088 q 759 1006 736 1042 q 785 927 782 971 q 769 839 788 883 q 712 754 751 794 q 610 685 672 714 q 526 671 563 663 q 471 702 490 679 q 449 753 451 725 q 468 799 447 782 z "},"T":{"ha":686,"x_min":17,"x_max":676,"o":"m 493 776 q 480 608 486 696 q 464 433 474 521 q 439 262 454 346 q 397 104 424 178 q 345 48 383 64 q 265 40 307 32 q 191 79 224 47 q 154 168 158 111 q 156 313 149 240 q 173 459 163 386 q 194 604 183 532 q 210 749 206 676 q 137 747 175 749 q 68 764 99 746 q 26 806 35 782 q 24 855 17 831 q 53 899 31 879 q 104 929 75 918 q 218 963 157 947 q 343 988 279 979 q 469 999 407 997 q 588 990 532 1000 q 647 960 625 983 q 672 910 668 938 q 662 855 676 882 q 613 814 647 828 q 553 796 585 801 q 493 776 521 790 z "},"U":{"ha":824,"x_min":18,"x_max":807,"o":"m 526 797 q 563 909 526 871 q 645 951 599 947 q 734 927 692 956 q 789 839 776 899 q 801 658 807 754 q 767 472 796 563 q 689 306 739 382 q 567 183 639 229 q 403 122 490 133 q 240 143 317 110 q 106 257 164 176 q 31 474 49 338 q 30 647 18 561 q 71 799 42 733 q 146 901 100 864 q 249 928 192 938 q 306 892 286 921 q 325 815 326 863 q 306 700 324 764 q 278 576 288 636 q 274 441 264 493 q 306 367 283 389 q 362 349 329 344 q 426 382 394 353 q 484 461 457 411 q 525 581 511 511 q 527 606 526 592 q 528 642 528 619 q 527 702 528 665 q 526 797 526 739 z "},"V":{"ha":829,"x_min":21,"x_max":804,"o":"m 382 522 q 428 633 400 564 q 492 774 457 703 q 563 906 526 844 q 632 994 599 967 q 693 1019 660 1017 q 756 1001 726 1021 q 795 956 786 981 q 800 894 804 931 q 777 790 796 856 q 730 648 758 724 q 666 493 701 572 q 591 348 631 414 q 510 235 551 282 q 432 178 469 189 q 312 192 369 160 q 206 286 254 224 q 119 431 157 349 q 57 594 81 513 q 27 747 33 676 q 35 858 21 818 q 76 914 47 893 q 142 932 104 935 q 206 899 179 929 q 251 828 232 869 q 285 744 271 788 q 311 671 299 700 q 376 524 342 600 l 382 522 z "},"W":{"ha":1093,"x_min":21,"x_max":1085,"o":"m 322 547 q 352 597 338 569 q 383 651 367 624 q 415 703 399 678 q 450 746 432 728 q 505 778 481 775 q 549 765 529 781 q 585 722 569 750 q 613 663 601 693 q 633 603 625 632 q 649 556 642 574 q 669 499 660 528 q 694 444 679 471 q 713 510 706 476 q 725 579 721 544 q 739 690 731 625 q 762 822 747 756 q 801 943 776 888 q 865 1025 826 999 q 938 1051 899 1047 q 1009 1042 976 1056 q 1063 997 1042 1028 q 1085 918 1085 965 q 1074 835 1085 886 q 1047 723 1064 783 q 1010 597 1031 663 q 968 472 989 532 q 927 363 947 413 q 893 282 907 313 q 844 203 874 242 q 777 142 814 164 q 699 124 740 119 q 615 174 657 128 q 565 248 586 206 q 529 335 544 290 q 500 426 514 381 q 469 511 486 472 q 463 499 467 504 q 457 489 460 494 q 424 422 439 457 q 392 353 408 388 q 358 287 376 319 q 317 225 339 254 q 274 189 299 201 q 225 176 250 176 q 176 186 200 175 q 133 221 151 197 q 68 356 92 272 q 33 532 44 439 q 22 715 22 625 q 25 869 21 806 q 51 940 28 911 q 105 982 74 969 q 172 987 136 994 q 236 949 207 979 q 278 868 263 919 q 301 758 293 817 q 314 643 310 700 q 322 547 318 586 z "},"Z":{"ha":728,"x_min":25,"x_max":710,"o":"m 356 397 q 464 398 410 396 q 572 388 518 400 q 624 365 600 381 q 667 328 649 350 q 696 278 685 306 q 708 224 707 251 q 694 163 710 192 q 655 110 679 133 q 600 74 631 88 q 539 61 569 61 q 438 60 494 61 q 324 60 382 58 q 213 70 267 63 q 117 96 158 78 q 62 135 83 110 q 33 190 40 160 q 30 253 25 221 q 53 317 35 286 q 116 418 82 365 q 184 525 150 471 q 249 633 218 579 q 303 736 279 686 q 224 736 265 736 q 146 740 183 736 q 110 752 126 743 q 79 774 93 761 q 46 841 47 804 q 76 910 44 878 q 155 953 104 936 q 264 974 206 969 q 381 968 322 978 q 482 932 439 958 q 545 861 525 906 q 547 751 565 817 q 530 703 540 726 q 507 657 519 681 q 432 526 469 590 q 356 397 394 463 z "},"Y":{"ha":768,"x_min":36,"x_max":756,"o":"m 419 774 q 474 888 446 826 q 535 997 503 949 q 606 1065 567 1047 q 678 1078 644 1083 q 733 1049 711 1074 q 756 988 756 1024 q 749 927 756 971 q 722 819 742 883 q 659 619 692 721 q 592 419 626 517 q 521 233 557 322 q 446 72 485 144 q 406 31 432 46 q 347 18 379 15 q 292 42 315 21 q 267 93 269 63 q 269 178 263 131 q 285 278 275 226 q 308 378 296 329 q 328 465 319 426 q 328 516 335 496 q 297 556 321 536 q 248 597 278 572 q 185 650 218 621 q 122 710 153 679 q 68 774 90 742 q 40 840 44 807 q 46 903 36 874 q 76 953 56 932 q 124 985 97 975 q 179 989 150 994 q 236 958 208 983 q 281 914 254 942 q 335 858 308 886 q 386 807 363 831 q 419 774 410 783 z "},"X":{"ha":785,"x_min":11,"x_max":775,"o":"m 367 456 q 323 398 350 433 q 267 325 296 363 q 211 256 239 288 q 164 210 183 224 q 114 191 140 194 q 61 201 88 188 q 22 244 32 217 q 22 299 11 271 q 63 385 39 344 q 115 466 88 426 q 169 544 142 506 q 219 625 197 583 q 178 676 203 644 q 128 743 153 708 q 83 811 103 778 q 57 867 63 844 q 60 941 43 913 q 111 979 78 969 q 185 978 144 989 q 261 936 226 968 q 318 876 292 908 q 375 815 344 843 q 453 903 410 860 q 539 985 497 946 q 617 1027 575 1017 q 699 1001 658 1038 q 722 908 744 961 q 683 839 710 876 q 626 763 657 801 q 566 686 596 724 q 517 615 536 649 q 551 567 528 599 q 601 499 574 536 q 657 422 628 463 q 710 344 686 381 q 749 278 733 307 q 768 233 765 249 q 731 156 775 183 q 685 144 710 143 q 639 157 660 144 q 601 190 625 165 q 551 245 578 214 q 494 311 524 276 q 440 376 465 346 q 394 428 414 407 q 367 456 375 450 z "},"a":{"ha":938,"x_min":15,"x_max":922,"o":"m 560 363 q 462 355 511 358 q 364 349 413 351 q 347 344 351 347 q 335 329 342 340 q 288 237 311 285 q 235 149 264 189 q 185 112 214 119 q 131 115 156 104 q 89 151 106 125 q 76 211 72 176 q 88 260 79 235 q 104 308 97 285 q 74 313 89 310 q 46 323 58 317 q 26 341 33 329 q 17 372 18 353 q 36 419 15 407 q 85 438 57 432 q 142 449 114 443 q 182 479 169 456 q 295 685 239 585 q 433 876 351 786 q 483 914 456 901 q 538 926 510 926 q 592 911 565 925 q 639 869 618 897 q 678 794 664 836 q 701 707 692 751 q 720 618 711 663 q 743 535 729 574 q 792 534 763 533 q 850 531 822 535 q 899 514 878 526 q 919 474 919 501 q 871 411 922 422 q 818 401 851 407 q 769 386 785 396 q 781 323 774 358 q 788 254 789 288 q 773 194 788 221 q 719 157 758 167 q 665 163 692 150 q 624 200 638 175 q 590 281 603 239 q 560 363 576 322 m 425 486 q 472 492 449 489 q 518 497 494 494 q 506 543 511 521 q 494 589 501 565 l 490 589 q 457 538 474 564 q 425 486 440 513 z "},"b":{"ha":821,"x_min":4,"x_max":793,"o":"m 547 635 q 695 547 640 597 q 772 442 750 497 q 782 331 793 388 q 732 226 771 275 q 628 138 693 176 q 476 78 563 99 q 374 56 426 67 q 272 31 321 46 q 245 9 265 28 q 198 -23 225 -10 q 140 -31 171 -36 q 79 19 108 -26 q 46 63 64 44 q 17 101 28 81 q 5 145 6 121 q 25 206 4 169 q 39 238 36 225 q 40 271 42 250 q 34 476 33 374 q 44 682 35 579 q 56 758 47 715 q 80 843 65 800 q 113 925 94 886 q 154 989 132 964 q 198 1022 178 1015 q 237 1026 218 1028 q 272 1019 256 1024 q 307 1019 289 1015 q 471 1042 394 1043 q 603 1018 547 1040 q 690 957 658 996 q 718 867 721 918 q 675 756 715 815 q 547 635 635 697 m 275 506 q 266 410 271 457 q 258 314 261 363 q 401 347 351 318 q 456 409 451 375 q 416 472 460 443 q 275 506 372 501 m 338 867 q 331 839 335 856 q 322 804 326 822 q 315 769 318 786 q 310 742 311 751 q 414 779 383 751 q 442 832 444 807 q 411 870 440 857 q 338 867 382 883 z "},"c":{"ha":707,"x_min":13,"x_max":689,"o":"m 386 192 q 210 222 286 186 q 88 319 135 257 q 27 460 42 381 q 33 621 13 539 q 115 780 54 703 q 278 914 175 857 q 388 950 335 944 q 485 943 440 956 q 562 904 529 931 q 611 844 594 878 q 625 772 628 810 q 596 700 622 733 q 526 658 568 664 q 449 683 483 653 q 403 689 429 700 q 353 654 378 678 q 311 601 329 631 q 289 554 293 572 q 298 484 278 515 q 356 442 318 453 q 419 433 388 432 q 483 438 451 435 q 549 442 515 442 q 619 429 583 442 q 683 353 674 410 q 670 290 689 317 q 620 244 651 263 q 552 216 589 226 q 488 201 515 206 q 437 196 463 199 q 386 192 411 193 z "},"d":{"ha":750,"x_min":25,"x_max":749,"o":"m 38 821 q 72 933 49 899 q 110 969 93 963 q 146 973 128 975 q 184 965 164 971 q 229 965 204 960 q 326 983 282 976 q 413 987 371 989 q 497 972 454 985 q 588 931 539 958 q 716 785 683 875 q 719 590 749 694 q 676 501 708 550 q 600 403 644 453 q 503 306 556 354 q 394 219 450 258 q 286 153 339 181 q 189 115 233 125 q 123 117 156 108 q 64 147 90 125 q 48 172 54 156 q 37 212 42 189 q 30 263 32 235 q 26 318 28 290 q 25 371 25 342 q 26 453 25 400 q 31 593 28 506 q 38 821 33 681 m 257 765 q 249 668 251 711 q 244 588 246 625 q 240 519 242 551 q 239 454 239 488 q 334 510 288 475 q 415 586 381 546 q 464 665 449 626 q 465 732 479 704 q 402 771 451 760 q 257 765 353 782 z "},"f":{"ha":749,"x_min":18,"x_max":735,"o":"m 307 731 q 300 649 304 690 q 292 568 296 608 q 356 578 317 574 q 438 583 396 582 q 517 581 479 585 q 579 568 556 578 q 624 526 613 553 q 629 469 635 499 q 603 416 624 440 q 550 385 582 392 q 413 361 479 369 q 274 350 346 353 q 272 288 274 328 q 266 207 269 249 q 258 128 263 165 q 246 72 253 90 q 215 30 236 47 q 165 10 193 13 q 72 58 103 3 q 45 144 56 86 q 28 274 35 201 q 20 426 22 346 q 20 581 18 507 q 27 714 22 654 q 40 806 32 774 q 80 893 51 854 q 147 960 108 932 q 247 1012 193 993 q 359 1040 301 1031 q 476 1051 417 1049 q 589 1056 535 1054 q 663 1040 632 1057 q 711 995 694 1022 q 731 935 728 968 q 722 872 735 903 q 683 817 710 842 q 611 785 656 793 q 460 756 533 769 q 307 731 386 742 z "},"g":{"ha":743,"x_min":14,"x_max":721,"o":"m 446 335 q 380 367 414 353 q 322 410 346 381 q 299 469 297 442 q 323 521 301 497 q 380 560 344 544 q 457 585 415 576 q 542 591 499 593 q 622 576 586 589 q 695 514 669 558 q 711 421 721 469 q 667 306 700 363 q 588 202 635 249 q 485 122 542 156 q 370 77 429 89 q 251 81 311 65 q 140 144 192 96 q 53 276 83 197 q 19 442 24 354 q 33 620 14 531 q 92 786 51 710 q 195 917 133 863 q 338 990 257 972 q 469 983 401 1004 q 586 919 538 963 q 651 815 635 875 q 629 690 668 754 q 563 644 603 647 q 492 681 524 642 q 444 733 468 710 q 397 765 421 757 q 347 758 372 772 q 296 699 322 744 q 254 603 272 658 q 229 492 236 549 q 231 380 222 435 q 267 283 239 325 q 301 253 282 260 q 349 253 321 247 q 406 283 376 258 q 446 335 436 308 z "},"e":{"ha":663,"x_min":19,"x_max":638,"o":"m 294 715 q 387 712 338 713 q 476 699 436 711 q 536 653 517 686 q 553 586 556 621 q 529 524 551 551 q 464 497 507 497 q 365 503 415 497 q 267 511 315 510 l 258 435 q 342 424 293 426 q 438 417 390 422 q 530 401 486 413 q 599 365 574 390 q 627 296 625 340 q 597 181 629 251 q 566 143 586 157 q 519 128 546 129 q 423 127 475 125 q 317 138 371 129 q 214 165 264 147 q 124 212 164 183 q 57 281 83 240 q 26 378 31 322 q 26 523 19 451 q 48 665 33 594 q 82 806 63 736 q 122 944 101 875 q 135 974 128 963 q 161 992 143 985 q 237 1013 190 1003 q 336 1028 283 1024 q 443 1031 389 1033 q 540 1014 497 1029 q 610 969 583 999 q 636 890 638 939 q 613 814 635 839 q 558 779 592 789 q 486 770 525 769 q 411 772 447 771 q 355 776 383 774 q 299 782 326 778 l 294 715 z "},"h":{"ha":892,"x_min":14,"x_max":857,"o":"m 518 486 q 428 480 472 483 q 338 472 383 476 q 343 377 336 439 q 357 249 350 315 q 368 128 364 183 q 367 51 372 72 q 341 15 360 29 q 299 -3 322 1 q 252 4 274 -6 q 215 33 231 14 q 199 74 208 43 q 181 145 190 104 q 162 232 171 186 q 144 321 153 278 q 130 399 136 364 q 121 451 124 433 q 106 453 114 453 q 92 453 99 453 q 42 472 61 454 q 19 512 24 489 q 24 557 14 535 q 60 592 33 579 q 77 599 68 596 q 94 607 86 601 q 93 698 94 644 q 93 808 92 751 q 101 915 94 864 q 126 999 108 965 q 159 1032 139 1021 q 201 1044 179 1043 q 244 1034 224 1044 q 279 1003 265 1024 q 305 928 297 974 q 316 832 313 882 q 322 734 319 782 q 331 651 324 686 q 437 656 383 654 q 544 661 490 658 q 573 807 561 736 q 611 953 585 878 q 630 999 619 976 q 656 1037 640 1021 q 692 1061 671 1053 q 746 1067 714 1069 q 811 1038 786 1063 q 843 978 836 1014 q 851 826 856 904 q 847 674 846 747 q 853 419 849 547 q 850 165 857 292 q 824 77 847 113 q 765 23 800 42 q 691 3 731 4 q 617 17 651 3 q 556 62 582 32 q 524 138 529 92 q 515 312 513 225 q 518 486 518 399 z "},"i":{"ha":357,"x_min":24,"x_max":324,"o":"m 319 714 q 308 566 313 636 q 297 428 303 496 q 286 297 292 361 q 271 168 281 232 q 227 110 264 128 q 149 97 190 93 q 81 127 106 101 q 42 190 56 153 q 26 274 29 228 q 26 367 24 321 q 32 453 28 413 q 39 524 36 494 q 58 678 46 601 q 94 829 71 754 q 140 901 110 876 q 202 931 169 926 q 265 919 235 935 q 308 871 294 904 q 323 794 324 835 q 319 714 322 753 z "},"k":{"ha":940,"x_min":22,"x_max":901,"o":"m 392 807 q 524 888 458 844 q 658 965 589 931 q 706 982 681 976 q 754 979 731 988 q 809 935 790 967 q 824 865 828 903 q 797 800 821 833 q 742 735 774 767 q 676 677 710 704 q 619 629 643 650 q 680 607 646 619 q 747 578 714 594 q 810 544 781 563 q 858 504 839 525 q 897 416 893 464 q 881 328 901 368 q 819 263 861 288 q 722 249 778 239 q 627 278 681 256 q 519 328 574 300 q 413 386 464 357 q 322 436 361 415 q 306 385 315 422 q 286 306 296 349 q 267 223 276 264 q 251 161 258 182 q 201 103 239 121 q 124 92 164 85 q 53 132 85 99 q 22 231 22 165 q 37 383 22 299 q 72 553 51 467 q 116 722 93 639 q 157 874 139 806 q 175 927 164 899 q 203 979 186 956 q 244 1017 221 1003 q 297 1029 267 1032 q 376 969 353 1024 q 392 889 392 933 q 392 807 392 844 z "},"j":{"ha":551,"x_min":-117,"x_max":510,"o":"m 201 -182 q 119 -226 165 -210 q 31 -240 74 -242 q -48 -216 -12 -239 q -99 -142 -83 -193 q -101 -26 -117 -81 q -43 75 -86 28 q 44 171 3 126 q 115 264 85 215 q 165 369 146 313 q 185 499 183 425 q 181 623 186 560 q 165 746 176 686 q 158 781 163 761 q 151 821 154 800 q 146 861 147 842 q 147 897 144 881 q 183 969 154 947 q 247 989 211 990 q 317 965 282 988 q 372 903 353 942 q 479 598 449 751 q 490 303 510 444 q 399 36 469 161 q 201 -182 328 -89 z "},"l":{"ha":718,"x_min":24,"x_max":685,"o":"m 289 390 q 367 392 324 390 q 454 392 410 393 q 541 382 499 390 q 615 354 583 374 q 666 301 647 335 q 682 214 685 267 q 677 183 681 197 q 667 154 674 169 q 615 87 647 106 q 531 67 582 68 q 364 79 447 64 q 199 113 281 94 q 31 308 39 149 q 27 394 29 339 q 24 517 25 450 q 24 658 24 585 q 29 797 25 732 q 42 912 33 861 q 65 986 51 963 q 113 1027 85 1018 q 167 1027 140 1036 q 215 994 193 1018 q 243 939 236 971 q 265 802 258 871 q 274 665 271 733 q 278 527 276 596 q 289 390 281 458 z "},"m":{"ha":1007,"x_min":22,"x_max":969,"o":"m 690 654 q 647 615 669 633 q 603 578 625 597 q 516 503 551 533 q 445 463 481 472 q 369 468 410 453 q 267 532 328 483 l 250 371 q 245 299 247 340 q 234 222 243 258 q 202 160 225 186 q 135 135 179 135 q 76 151 99 135 q 40 199 54 167 q 29 261 33 215 q 24 369 25 307 q 23 500 22 431 q 26 632 24 569 q 32 743 28 694 q 42 811 36 792 q 73 872 51 847 q 122 908 94 897 q 183 915 150 918 q 247 890 215 911 q 297 850 274 874 q 340 801 319 826 q 381 749 361 775 q 425 703 401 724 q 496 758 460 726 q 567 825 532 790 q 636 895 603 860 q 700 961 669 931 q 755 998 725 986 q 815 1008 785 1010 q 873 989 846 1006 q 919 942 900 972 q 948 858 938 913 q 964 738 958 804 q 969 600 969 672 q 964 460 968 528 q 951 337 960 393 q 933 247 943 281 q 870 165 915 189 q 778 147 825 140 q 697 188 732 153 q 661 279 661 222 q 674 439 661 360 q 687 544 681 490 q 690 654 693 597 z "},"n":{"ha":850,"x_min":19,"x_max":839,"o":"m 506 658 q 517 830 511 747 q 551 1000 524 913 q 593 1077 565 1044 q 672 1115 621 1110 q 756 1099 717 1121 q 814 1036 796 1078 q 838 888 839 975 q 819 711 838 801 q 771 538 801 621 q 707 400 740 454 q 576 295 656 317 q 408 314 496 274 q 317 376 354 340 q 233 447 279 413 q 231 349 233 399 q 226 250 229 299 q 203 190 224 215 q 146 163 182 164 q 99 174 118 161 q 67 211 79 188 q 53 255 60 224 q 42 327 47 286 q 32 414 36 368 q 25 502 28 460 q 21 578 22 544 q 21 629 19 613 q 46 703 24 671 q 110 747 68 736 q 175 745 140 756 q 244 713 210 735 q 314 661 279 690 q 382 603 349 632 q 452 546 428 563 q 487 537 476 529 q 500 574 497 544 q 506 658 503 604 z "},"o":{"ha":622,"x_min":26,"x_max":596,"o":"m 88 294 q 40 394 54 342 q 29 504 26 446 q 41 592 31 547 q 71 676 51 636 q 119 751 90 717 q 188 806 149 785 q 369 851 282 863 q 529 757 456 840 q 590 614 585 694 q 566 454 596 533 q 480 310 536 375 q 356 213 424 244 q 217 197 289 182 q 88 294 146 213 m 379 611 q 365 649 378 639 q 337 657 353 660 q 306 642 321 654 q 282 613 290 629 q 252 521 256 558 q 260 465 249 483 q 291 445 271 446 q 331 463 311 444 q 365 517 350 481 q 379 611 379 554 z "},"p":{"ha":788,"x_min":31,"x_max":771,"o":"m 31 703 q 34 751 31 726 q 42 800 38 776 q 86 902 53 856 q 168 984 119 949 q 276 1043 217 1019 q 396 1076 335 1067 q 515 1081 457 1086 q 621 1056 574 1076 q 694 1006 663 1038 q 743 936 725 975 q 766 853 761 897 q 761 767 771 810 q 700 640 744 697 q 596 534 656 582 q 470 449 536 486 q 344 382 404 411 q 328 368 332 375 q 324 347 324 361 q 325 283 324 317 q 326 215 326 249 q 324 147 326 181 q 317 85 322 114 q 294 40 310 58 q 251 14 279 21 q 206 14 226 8 q 169 33 185 19 q 144 65 154 46 q 128 108 133 85 q 103 218 114 163 q 81 329 92 274 q 65 416 74 367 q 48 517 56 465 q 35 617 40 568 q 31 703 31 665 m 340 599 q 473 664 429 632 q 528 722 517 696 q 524 767 539 749 q 478 792 508 785 q 408 791 447 799 q 332 757 368 783 l 340 599 z "},"q":{"ha":815,"x_min":25,"x_max":793,"o":"m 557 140 q 589 41 572 90 q 600 -61 606 -8 q 565 -130 596 -107 q 498 -153 535 -153 q 427 -131 461 -153 q 383 -62 393 -108 q 372 -6 376 -35 q 363 50 368 22 q 360 62 361 57 q 360 74 360 67 q 224 105 285 74 q 115 194 163 136 q 53 306 75 244 q 28 435 32 368 q 38 572 25 503 q 77 704 50 642 q 144 819 104 767 q 233 908 183 872 q 246 919 240 914 q 257 932 251 925 q 362 1017 301 986 q 485 1050 422 1047 q 606 1026 547 1053 q 708 936 665 999 q 772 798 751 874 q 790 647 793 722 q 755 453 788 547 q 674 272 722 360 q 619 202 650 229 q 557 140 589 175 m 482 383 q 553 528 532 447 q 565 689 574 608 q 556 742 563 717 q 533 792 549 768 q 468 815 508 829 q 406 765 433 804 q 360 674 379 726 q 331 564 342 622 q 320 456 321 506 q 328 374 319 407 q 358 339 338 340 q 354 410 354 374 q 369 457 354 439 q 406 475 385 475 q 448 453 426 475 q 482 383 469 432 z "},"r":{"ha":731,"x_min":21,"x_max":713,"o":"m 418 508 q 490 453 453 479 q 561 399 526 426 q 628 342 596 372 q 690 275 661 313 q 710 215 713 246 q 690 160 708 183 q 642 126 671 138 q 581 128 613 115 q 502 169 547 140 q 412 231 457 197 q 328 301 367 265 q 267 367 289 338 l 261 361 q 252 289 254 326 q 249 213 250 251 q 242 138 247 175 q 225 68 238 101 q 189 29 215 44 q 139 14 163 14 q 65 47 94 14 q 31 122 36 79 q 23 226 25 164 q 22 358 21 288 q 28 503 24 428 q 42 647 33 578 q 60 776 50 717 q 85 876 71 836 q 148 967 103 931 q 250 1021 193 1003 q 367 1040 307 1039 q 474 1029 426 1042 q 552 992 517 1017 q 610 933 588 968 q 638 858 632 899 q 628 771 643 817 q 591 701 615 736 q 537 631 567 665 q 476 566 507 597 q 418 508 444 535 m 299 685 q 376 742 353 707 q 399 807 400 778 q 375 850 399 836 q 313 843 351 864 l 299 685 z "},"s":{"ha":774,"x_min":26,"x_max":788,"o":"m 468 799 q 436 785 460 794 q 385 763 413 775 q 332 735 358 750 q 290 705 306 721 q 274 672 274 689 q 301 642 275 656 q 375 606 338 622 q 449 574 413 590 q 522 540 486 558 q 593 497 558 522 q 661 433 632 469 q 704 354 690 396 q 715 268 718 313 q 689 178 713 224 q 622 97 664 129 q 532 42 581 64 q 321 -8 432 -1 q 253 1 285 -11 q 199 37 222 14 q 165 91 176 60 q 157 158 153 122 q 222 290 168 256 q 369 318 276 325 q 408 319 386 317 q 443 328 429 321 q 455 347 457 335 q 419 375 453 358 q 338 414 381 396 q 253 452 294 432 q 172 496 211 472 q 100 549 132 519 q 33 667 39 604 q 58 792 26 731 q 152 908 90 853 q 288 1006 214 964 q 442 1070 363 1047 q 589 1090 521 1093 q 693 1065 650 1088 q 759 1006 736 1042 q 785 927 782 971 q 769 839 788 883 q 712 754 751 794 q 610 685 672 714 q 526 671 563 663 q 471 702 490 679 q 449 753 451 725 q 468 799 447 782 z "},"t":{"ha":686,"x_min":17,"x_max":676,"o":"m 493 776 q 480 608 486 696 q 464 433 474 521 q 439 262 454 346 q 397 104 424 178 q 345 48 383 64 q 265 40 307 32 q 191 79 224 47 q 154 168 158 111 q 156 313 149 240 q 173 459 163 386 q 194 604 183 532 q 210 749 206 676 q 137 747 175 749 q 68 764 99 746 q 26 806 35 782 q 24 855 17 831 q 53 899 31 879 q 104 929 75 918 q 218 963 157 947 q 343 988 279 979 q 469 999 407 997 q 588 990 532 1000 q 647 960 625 983 q 672 910 668 938 q 662 855 676 882 q 613 814 647 828 q 553 796 585 801 q 493 776 521 790 z "},"u":{"ha":824,"x_min":18,"x_max":807,"o":"m 526 797 q 563 909 526 871 q 645 951 599 947 q 734 927 692 956 q 789 839 776 899 q 801 658 807 754 q 767 472 796 563 q 689 306 739 382 q 567 183 639 229 q 403 122 490 133 q 240 143 317 110 q 106 257 164 176 q 31 474 49 338 q 30 647 18 561 q 71 799 42 733 q 146 901 100 864 q 249 928 192 938 q 306 892 286 921 q 325 815 326 863 q 306 700 324 764 q 278 576 288 636 q 274 441 264 493 q 306 367 283 389 q 362 349 329 344 q 426 382 394 353 q 484 461 457 411 q 525 581 511 511 q 527 606 526 592 q 528 642 528 619 q 527 702 528 665 q 526 797 526 739 z "},"v":{"ha":829,"x_min":21,"x_max":804,"o":"m 382 522 q 428 633 400 564 q 492 774 457 703 q 563 906 526 844 q 632 994 599 967 q 693 1019 660 1017 q 756 1001 726 1021 q 795 956 786 981 q 800 894 804 931 q 777 790 796 856 q 730 648 758 724 q 666 493 701 572 q 591 348 631 414 q 510 235 551 282 q 432 178 469 189 q 312 192 369 160 q 206 286 254 224 q 119 431 157 349 q 57 594 81 513 q 27 747 33 676 q 35 858 21 818 q 76 914 47 893 q 142 932 104 935 q 206 899 179 929 q 251 828 232 869 q 285 744 271 788 q 311 671 299 700 q 376 524 342 600 l 382 522 z "},"w":{"ha":1093,"x_min":21,"x_max":1085,"o":"m 322 547 q 352 597 338 569 q 383 651 367 624 q 415 703 399 678 q 450 746 432 728 q 505 778 481 775 q 549 765 529 781 q 585 722 569 750 q 613 663 601 693 q 633 603 625 632 q 649 556 642 574 q 669 499 660 528 q 694 444 679 471 q 713 510 706 476 q 725 579 721 544 q 739 690 731 625 q 762 822 747 756 q 801 943 776 888 q 865 1025 826 999 q 938 1051 899 1047 q 1009 1042 976 1056 q 1063 997 1042 1028 q 1085 918 1085 965 q 1074 835 1085 886 q 1047 723 1064 783 q 1010 597 1031 663 q 968 472 989 532 q 927 363 947 413 q 893 282 907 313 q 844 203 874 242 q 777 142 814 164 q 699 124 740 119 q 615 174 657 128 q 565 248 586 206 q 529 335 544 290 q 500 426 514 381 q 469 511 486 472 q 463 499 467 504 q 457 489 460 494 q 424 422 439 457 q 392 353 408 388 q 358 287 376 319 q 317 225 339 254 q 274 189 299 201 q 225 176 250 176 q 176 186 200 175 q 133 221 151 197 q 68 356 92 272 q 33 532 44 439 q 22 715 22 625 q 25 869 21 806 q 51 940 28 911 q 105 982 74 969 q 172 987 136 994 q 236 949 207 979 q 278 868 263 919 q 301 758 293 817 q 314 643 310 700 q 322 547 318 586 z "},"x":{"ha":785,"x_min":11,"x_max":775,"o":"m 367 456 q 323 398 350 433 q 267 325 296 363 q 211 256 239 288 q 164 210 183 224 q 114 191 140 194 q 61 201 88 188 q 22 244 32 217 q 22 299 11 271 q 63 385 39 344 q 115 466 88 426 q 169 544 142 506 q 219 625 197 583 q 178 676 203 644 q 128 743 153 708 q 83 811 103 778 q 57 867 63 844 q 60 941 43 913 q 111 979 78 969 q 185 978 144 989 q 261 936 226 968 q 318 876 292 908 q 375 815 344 843 q 453 903 410 860 q 539 985 497 946 q 617 1027 575 1017 q 699 1001 658 1038 q 722 908 744 961 q 683 839 710 876 q 626 763 657 801 q 566 686 596 724 q 517 615 536 649 q 551 567 528 599 q 601 499 574 536 q 657 422 628 463 q 710 344 686 381 q 749 278 733 307 q 768 233 765 249 q 731 156 775 183 q 685 144 710 143 q 639 157 660 144 q 601 190 625 165 q 551 245 578 214 q 494 311 524 276 q 440 376 465 346 q 394 428 414 407 q 367 456 375 450 z "},"y":{"ha":768,"x_min":36,"x_max":756,"o":"m 419 774 q 474 888 446 826 q 535 997 503 949 q 606 1065 567 1047 q 678 1078 644 1083 q 733 1049 711 1074 q 756 988 756 1024 q 749 927 756 971 q 722 819 742 883 q 659 619 692 721 q 592 419 626 517 q 521 233 557 322 q 446 72 485 144 q 406 31 432 46 q 347 18 379 15 q 292 42 315 21 q 267 93 269 63 q 269 178 263 131 q 285 278 275 226 q 308 378 296 329 q 328 465 319 426 q 328 516 335 496 q 297 556 321 536 q 248 597 278 572 q 185 650 218 621 q 122 710 153 679 q 68 774 90 742 q 40 840 44 807 q 46 903 36 874 q 76 953 56 932 q 124 985 97 975 q 179 989 150 994 q 236 958 208 983 q 281 914 254 942 q 335 858 308 886 q 386 807 363 831 q 419 774 410 783 z "},"z":{"ha":728,"x_min":25,"x_max":710,"o":"m 356 397 q 464 398 410 396 q 572 388 518 400 q 624 365 600 381 q 667 328 649 350 q 696 278 685 306 q 708 224 707 251 q 694 163 710 192 q 655 110 679 133 q 600 74 631 88 q 539 61 569 61 q 438 60 494 61 q 324 60 382 58 q 213 70 267 63 q 117 96 158 78 q 62 135 83 110 q 33 190 40 160 q 30 253 25 221 q 53 317 35 286 q 116 418 82 365 q 184 525 150 471 q 249 633 218 579 q 303 736 279 686 q 224 736 265 736 q 146 740 183 736 q 110 752 126 743 q 79 774 93 761 q 46 841 47 804 q 76 910 44 878 q 155 953 104 936 q 264 974 206 969 q 381 968 322 978 q 482 932 439 958 q 545 861 525 906 q 547 751 565 817 q 530 703 540 726 q 507 657 519 681 q 432 526 469 590 q 356 397 394 463 z "},"€":{"ha":772,"x_min":21,"x_max":747,"o":"m 93 458 q 53 474 71 458 q 34 509 35 490 q 55 544 33 528 q 132 564 76 561 l 131 600 q 103 599 118 600 q 76 600 89 597 q 36 619 51 604 q 24 653 21 635 q 54 688 28 672 q 138 707 81 703 q 160 778 150 743 q 183 844 169 813 q 215 906 196 876 q 267 964 235 936 q 369 1024 315 1007 q 473 1038 422 1040 q 568 1015 524 1035 q 642 963 613 994 q 685 893 672 932 q 686 814 699 854 q 660 770 678 789 q 622 744 643 751 q 575 740 600 736 q 528 761 550 743 q 513 774 521 768 q 496 788 504 781 q 464 801 475 803 q 436 781 453 800 q 417 752 425 768 q 401 721 408 736 q 446 724 421 724 q 492 718 471 725 q 524 695 513 711 q 528 650 536 679 q 503 616 521 625 q 465 606 486 607 q 419 606 443 604 q 378 603 396 607 q 374 587 375 594 q 372 569 372 579 q 438 572 403 569 q 501 567 474 574 q 534 544 521 561 q 544 508 547 528 q 524 474 542 485 q 483 458 507 463 q 435 454 460 454 q 392 454 410 454 q 396 435 394 444 q 403 418 397 426 q 450 369 428 376 q 496 372 472 361 q 546 403 519 383 q 604 438 572 424 q 690 447 657 460 q 735 406 722 435 q 740 340 747 376 q 706 278 732 304 q 558 192 638 215 q 404 187 479 169 q 267 261 329 204 q 168 415 204 318 q 160 437 164 426 q 154 458 157 447 l 93 458 z "},"¤":{"ha":765,"x_min":33,"x_max":729,"o":"m 232 782 q 315 821 276 810 q 385 831 353 832 q 444 823 417 831 q 492 808 471 815 q 529 796 513 800 q 558 797 546 792 q 597 817 575 806 q 640 834 618 828 q 682 837 661 840 q 717 813 703 833 q 724 773 729 794 q 706 736 719 751 q 671 707 686 714 q 629 689 656 700 q 660 528 667 607 q 614 371 654 450 q 666 322 642 346 q 706 263 690 297 q 710 224 715 240 q 690 201 704 208 q 658 195 676 193 q 624 213 640 197 q 581 255 601 232 q 539 297 561 278 q 467 257 501 269 q 398 244 432 244 q 328 253 364 243 q 251 281 292 263 q 208 245 236 268 q 150 206 181 222 q 91 187 119 189 q 46 214 63 185 q 44 258 33 236 q 77 298 56 279 q 124 332 99 317 q 165 357 150 347 q 109 526 110 440 q 154 699 108 611 q 106 737 131 718 q 61 778 81 756 q 44 818 43 797 q 58 853 46 839 q 89 871 69 867 q 128 863 108 875 q 181 823 156 844 q 232 782 207 801 m 397 419 q 456 446 431 419 q 488 507 481 472 q 480 577 494 542 q 421 631 465 613 q 369 631 393 642 q 328 596 346 619 q 304 542 311 572 q 303 484 297 511 q 332 438 310 457 q 397 419 354 419 z "},"°":{"ha":0,"x_min":-1749,"x_max":925,"o":"m 496 -46 q 528 -100 518 -68 q 535 -163 539 -132 q 511 -219 531 -194 q 454 -253 492 -244 q 390 -259 425 -260 q 319 -254 354 -258 q 248 -242 283 -250 q 183 -228 213 -235 q -107 -179 42 -196 q -406 -156 -256 -162 q -705 -150 -556 -149 q -1000 -156 -854 -151 q -1281 -174 -1140 -161 q -1561 -204 -1421 -187 q -1607 -210 -1579 -206 q -1663 -214 -1635 -214 q -1715 -206 -1692 -214 q -1744 -174 -1737 -197 q -1744 -142 -1749 -158 q -1726 -115 -1740 -125 q -1679 -90 -1708 -101 q -1617 -69 -1650 -78 q -1551 -53 -1583 -60 q -1494 -43 -1518 -47 q -1066 22 -1279 -4 q -638 58 -853 47 q -205 63 -424 68 q 243 33 14 57 q 395 6 328 25 q 496 -46 463 -12 m 786 -289 q 717 -269 743 -290 q 682 -217 692 -247 q 677 -151 672 -186 q 703 -92 682 -117 q 758 -56 724 -67 q 840 -62 792 -46 q 904 -115 883 -78 q 919 -190 925 -151 q 881 -258 914 -229 q 786 -289 849 -287 z "},"™":{"ha":722,"x_min":47,"x_max":685,"o":"m 233 901 q 221 767 226 838 q 196 639 215 697 q 175 617 190 624 q 144 614 160 611 q 115 629 128 617 q 101 664 103 642 q 108 777 97 721 q 122 890 119 833 q 94 890 108 890 q 68 896 79 889 q 51 913 56 903 q 50 931 47 922 q 61 948 53 940 q 82 960 69 956 q 174 983 122 975 q 269 983 226 990 q 292 972 283 981 q 303 953 301 964 q 299 931 304 942 q 279 915 293 921 q 256 908 268 910 q 233 901 244 907 m 576 853 q 560 838 568 846 q 542 824 551 831 q 508 794 522 807 q 481 778 494 782 q 451 781 467 775 q 411 806 435 786 l 406 743 q 403 715 404 731 q 399 685 403 700 q 386 661 394 671 q 360 651 378 651 q 324 676 333 651 q 318 720 319 686 q 317 794 317 754 q 319 868 317 833 q 324 914 321 903 q 356 952 332 943 q 404 944 379 961 q 440 910 425 932 q 474 872 454 889 q 529 920 501 892 q 581 972 557 949 q 625 990 600 992 q 665 965 650 989 q 680 911 675 949 q 685 832 685 874 q 681 752 685 790 q 671 694 676 714 q 647 662 664 671 q 611 656 629 653 q 579 672 593 658 q 565 707 565 685 q 569 769 565 738 q 575 810 572 789 q 576 853 578 831 z "},":":{"ha":329,"x_min":42,"x_max":279,"o":"m 71 674 q 87 730 71 707 q 126 763 103 753 q 176 774 149 774 q 226 762 203 774 q 264 728 249 750 q 279 674 279 706 q 247 597 279 624 q 174 570 214 571 q 103 595 135 569 q 71 674 71 621 m 42 314 q 58 370 42 347 q 97 403 74 393 q 147 414 119 414 q 197 402 174 414 q 235 368 219 390 q 250 314 250 346 q 217 238 250 264 q 145 210 185 211 q 74 235 106 210 q 42 314 42 261 z "},"\"":{"ha":456,"x_min":44,"x_max":392,"o":"m 233 767 q 235 820 235 801 q 235 851 235 839 q 235 869 235 863 q 236 888 235 876 q 268 953 242 933 q 323 970 294 972 q 372 945 351 968 q 385 882 392 922 q 374 819 379 850 q 360 756 368 788 q 332 721 353 732 q 290 712 311 710 q 251 728 268 714 q 233 767 233 742 m 44 767 q 46 820 46 801 q 46 851 46 839 q 46 869 46 863 q 47 888 46 876 q 79 953 53 933 q 134 970 106 972 q 183 945 163 968 q 196 882 203 922 q 185 819 190 850 q 171 756 179 788 q 143 721 164 732 q 101 712 122 710 q 62 728 79 714 q 44 767 44 742 z "},"”":{"ha":456,"x_min":44,"x_max":392,"o":"m 233 767 q 235 820 235 801 q 235 851 235 839 q 235 869 235 863 q 236 888 235 876 q 268 953 242 933 q 323 970 294 972 q 372 945 351 968 q 385 882 392 922 q 374 819 379 850 q 360 756 368 788 q 332 721 353 732 q 290 712 311 710 q 251 728 268 714 q 233 767 233 742 m 44 767 q 46 820 46 801 q 46 851 46 839 q 46 869 46 863 q 47 888 46 876 q 79 953 53 933 q 134 970 106 972 q 183 945 163 968 q 196 882 203 922 q 185 819 190 850 q 171 756 179 788 q 143 721 164 732 q 101 712 122 710 q 62 728 79 714 q 44 767 44 742 z "},"“":{"ha":456,"x_min":44,"x_max":392,"o":"m 233 767 q 235 820 235 801 q 235 851 235 839 q 235 869 235 863 q 236 888 235 876 q 268 953 242 933 q 323 970 294 972 q 372 945 351 968 q 385 882 392 922 q 374 819 379 850 q 360 756 368 788 q 332 721 353 732 q 290 712 311 710 q 251 728 268 714 q 233 767 233 742 m 44 767 q 46 820 46 801 q 46 851 46 839 q 46 869 46 863 q 47 888 46 876 q 79 953 53 933 q 134 970 106 972 q 183 945 163 968 q 196 882 203 922 q 185 819 190 850 q 171 756 179 788 q 143 721 164 732 q 101 712 122 710 q 62 728 79 714 q 44 767 44 742 z "},"’":{"ha":292,"x_min":69,"x_max":228,"o":"m 69 767 q 71 820 71 801 q 71 851 71 839 q 71 869 71 863 q 72 888 71 876 q 104 953 78 933 q 159 970 131 972 q 208 945 188 968 q 221 882 228 922 q 210 819 215 850 q 196 756 204 788 q 168 721 189 732 q 126 712 147 710 q 87 728 104 714 q 69 767 69 742 z "},"‘":{"ha":292,"x_min":69,"x_max":228,"o":"m 69 767 q 71 820 71 801 q 71 851 71 839 q 71 869 71 863 q 72 888 71 876 q 104 953 78 933 q 159 970 131 972 q 208 945 188 968 q 221 882 228 922 q 210 819 215 850 q 196 756 204 788 q 168 721 189 732 q 126 712 147 710 q 87 728 104 714 q 69 767 69 742 z "},"±":{"ha":557,"x_min":26,"x_max":536,"o":"m 367 546 q 374 492 369 521 q 378 439 379 464 q 347 371 375 394 q 283 344 318 347 q 217 360 249 342 q 176 422 185 379 q 171 481 171 450 q 171 542 171 513 q 132 540 156 542 q 87 542 108 539 q 49 556 65 546 q 32 592 33 567 q 40 624 31 610 q 67 643 49 638 q 121 650 90 650 q 176 651 151 650 q 183 693 179 672 q 192 733 186 714 q 228 789 201 774 q 283 795 254 804 q 333 753 311 786 q 357 667 356 721 q 402 667 375 667 q 455 665 429 668 q 501 650 481 661 q 524 614 521 639 q 510 572 528 586 q 466 551 492 557 q 412 546 440 546 q 367 546 383 546 m 411 150 q 311 147 353 149 q 239 145 269 146 q 186 144 208 144 q 143 147 164 144 q 62 165 97 150 q 26 217 26 181 q 40 256 26 240 q 76 278 54 271 q 249 315 156 306 q 428 325 343 324 q 487 308 461 325 q 524 267 513 290 q 529 216 536 243 q 492 171 522 189 q 456 156 476 160 q 411 150 435 151 z "},"$":{"ha":554,"x_min":13,"x_max":539,"o":"m 440 263 q 421 249 431 256 q 400 239 411 243 q 400 180 400 218 q 393 106 400 142 q 367 49 386 71 q 310 40 347 26 q 281 67 289 49 q 272 109 272 86 q 275 156 271 132 q 283 197 279 181 q 223 184 254 190 q 163 178 192 178 q 106 187 133 178 q 57 219 79 196 q 23 278 33 244 q 18 342 13 311 q 46 397 24 374 q 113 428 68 421 q 144 433 122 429 q 190 441 167 436 q 235 453 214 446 q 263 468 256 460 q 226 483 247 475 q 185 497 206 490 q 144 512 164 504 q 111 528 124 519 q 61 572 79 546 q 35 628 43 599 q 32 687 28 657 q 51 744 36 717 q 78 786 64 767 q 112 823 92 806 q 160 858 132 840 q 226 892 188 875 q 220 926 222 911 q 213 960 218 940 q 216 1008 204 990 q 247 1030 228 1026 q 284 1023 265 1033 q 308 988 303 1013 q 316 953 313 971 q 322 918 319 936 q 373 916 347 917 q 424 913 399 915 q 487 886 461 907 q 526 837 513 865 q 539 778 539 808 q 525 725 539 749 q 483 688 511 701 q 413 683 456 675 q 340 688 374 692 q 285 676 306 685 q 265 654 265 667 q 292 629 264 642 q 365 602 329 611 q 432 578 400 593 q 508 512 485 554 q 528 423 531 469 q 503 333 526 376 q 440 263 479 289 z "},"!":{"ha":376,"x_min":0,"x_max":358,"o":"m 51 481 q 54 555 51 507 q 65 660 57 603 q 85 776 72 717 q 118 884 99 835 q 165 967 138 933 q 231 1006 193 1000 q 273 1002 251 1008 q 312 984 294 996 q 341 955 329 972 q 356 917 353 938 q 352 853 358 893 q 333 764 346 813 q 306 662 321 715 q 274 558 290 608 q 245 466 258 508 q 225 397 232 424 q 187 343 215 360 q 128 335 158 326 q 75 378 99 343 q 51 481 51 414 m 203 215 q 172 140 203 165 q 103 115 140 115 q 34 139 65 114 q 1 214 3 164 q 15 270 0 247 q 53 304 31 293 q 101 315 75 315 q 150 304 128 315 q 188 271 172 293 q 203 215 203 249 z "},"#":{"ha":893,"x_min":33,"x_max":869,"o":"m 640 463 q 690 454 661 458 q 742 441 718 450 q 781 414 767 432 q 790 365 796 396 q 765 324 785 338 q 717 313 744 311 q 664 317 690 314 q 611 322 638 321 q 597 256 604 290 q 579 190 590 222 q 538 133 563 149 q 491 121 514 118 q 451 142 468 124 q 435 188 435 161 q 438 262 435 224 q 444 336 440 300 l 360 336 q 350 281 353 311 q 338 226 347 250 q 317 198 331 210 q 285 185 304 186 q 236 199 253 182 q 213 242 219 217 q 207 297 207 268 q 207 347 207 326 q 149 353 179 350 q 92 363 119 356 q 47 390 60 369 q 35 432 33 410 q 53 472 38 454 q 97 492 69 489 q 167 496 132 494 q 236 497 201 497 q 247 553 243 525 q 258 610 251 582 q 187 607 222 610 q 115 604 151 604 q 63 622 82 604 q 42 661 44 639 q 54 704 40 683 q 101 732 68 725 q 195 746 149 742 q 290 756 242 750 q 313 841 301 797 q 344 924 325 885 q 363 947 351 936 q 389 960 375 957 q 444 951 428 969 q 465 901 461 932 q 463 837 468 871 q 456 782 458 803 q 454 772 454 776 q 451 761 454 767 l 521 761 q 539 813 531 782 q 559 872 547 843 q 588 922 571 900 q 633 949 606 944 q 695 935 676 954 q 719 887 714 917 q 719 823 724 857 q 713 764 715 789 q 738 765 725 764 q 763 764 750 765 q 793 761 778 763 q 824 757 808 760 q 856 738 844 753 q 869 705 868 722 q 860 671 869 688 q 832 647 851 654 q 795 642 819 643 q 746 638 771 640 q 701 632 721 636 q 678 617 681 628 q 658 540 667 579 q 640 463 649 501 m 418 617 q 406 553 411 585 q 394 490 401 522 l 469 485 q 481 553 475 519 q 492 622 486 588 q 455 619 472 619 q 418 617 438 618 z "}}}
